<?xml version="1.0" encoding="UTF-8"?>
<svg xmlns="http://www.w3.org/2000/svg" xmlns:xlink="http://www.w3.org/1999/xlink" width="300px" height="50px" viewBox="0 0 300 50" version="1.1">
<g id="surface1">
<path style=" stroke:none;fill-rule:nonzero;fill:rgb(70.588235%,61.176471%,6.666667%);fill-opacity:0.972549;" d="M 106.796875 38.179688 L 106.300781 38.582031 C 106.050781 38.785156 105.921875 38.761719 105.914062 38.515625 L 105.523438 29.460938 L 105.414062 0.652344 C 105.523438 0.238281 105.785156 0.0585938 106.191406 0.121094 C 106.53125 0.171875 106.769531 0.410156 106.769531 0.695312 Z M 106.796875 38.179688 "/>
<path style=" stroke:none;fill-rule:nonzero;fill:rgb(100%,78.431373%,0%);fill-opacity:1;" d="M 20.78125 8.445312 C 20.597656 8.410156 20.457031 8.328125 20.410156 8.226562 C 20.359375 8.125 20.414062 8.015625 20.546875 7.9375 C 25.472656 5.0625 31.75 3.296875 39.375 2.644531 C 51.929688 1.574219 62.613281 3.410156 71.421875 8.148438 C 71.53125 8.210938 71.578125 8.300781 71.546875 8.382812 C 71.515625 8.46875 71.414062 8.535156 71.269531 8.566406 C 68.417969 9.148438 65.980469 9.101562 63.960938 8.421875 C 52.71875 4.652344 41.59375 4.304688 30.589844 7.382812 C 30.515625 7.402344 29.808594 7.660156 28.460938 8.15625 C 26.46875 8.890625 23.90625 8.988281 20.78125 8.445312 Z M 20.78125 8.445312 "/>
<path style=" stroke:none;fill-rule:nonzero;fill:rgb(100%,78.431373%,0%);fill-opacity:1;" d="M 146.90625 38.871094 C 143.394531 39.246094 139.929688 39.269531 136.515625 38.9375 C 133.195312 38.613281 130.628906 37.878906 128.808594 36.730469 C 126.726562 35.414062 125.632812 33.8125 125.53125 31.925781 C 125.21875 26.199219 127.484375 20.808594 132.324219 15.753906 C 134.316406 13.667969 137.089844 11.957031 140.640625 10.628906 C 143.167969 9.6875 145.976562 9.277344 149.066406 9.402344 C 151.519531 9.503906 151.796875 9.996094 149.894531 10.886719 C 148.925781 11.347656 148.113281 11.878906 147.445312 12.488281 C 141.304688 18.085938 138.015625 24.417969 137.582031 31.480469 C 137.570312 31.699219 137.746094 31.910156 138.0625 32.050781 C 138.378906 32.191406 138.796875 32.238281 139.1875 32.183594 C 142.046875 31.785156 145.222656 32.003906 148.71875 32.835938 C 149.097656 32.925781 149.539062 32.851562 149.757812 32.660156 C 157.035156 26.308594 159.847656 19.515625 158.199219 12.289062 C 157.855469 10.8125 157.027344 9.742188 155.707031 9.074219 C 154.019531 8.214844 151.828125 7.792969 149.136719 7.800781 C 145.132812 7.816406 141.3125 8.292969 137.679688 9.234375 C 129.433594 11.367188 125.378906 14.949219 125.519531 19.984375 C 125.519531 20.210938 125.636719 20.445312 125.878906 20.683594 C 126.820312 21.652344 126.136719 21.949219 123.828125 21.578125 C 122.640625 21.386719 121.484375 21.144531 120.359375 20.855469 C 119.945312 20.753906 119.605469 20.582031 119.386719 20.363281 C 117.25 18.222656 117.453125 16.082031 119.996094 13.941406 C 123.851562 10.710938 129.097656 8.429688 135.726562 7.097656 C 144.410156 5.351562 152.308594 5.164062 159.429688 6.527344 C 164.113281 7.425781 167.15625 9.113281 168.5625 11.582031 C 169.398438 13.054688 169.773438 15.257812 169.679688 18.195312 C 169.480469 25.292969 164.722656 31.421875 155.417969 36.589844 C 155.128906 36.746094 155.082031 36.992188 155.304688 37.179688 C 157.382812 38.882812 160.753906 39.960938 165.417969 40.410156 C 165.617188 40.425781 165.789062 40.496094 165.878906 40.59375 C 165.972656 40.691406 165.976562 40.808594 165.890625 40.910156 C 164.277344 42.738281 161.957031 43.753906 158.929688 43.957031 C 156.265625 44.140625 153.832031 43.734375 151.625 42.746094 C 149.660156 41.863281 148.359375 40.671875 147.722656 39.167969 C 147.640625 38.964844 147.28125 38.832031 146.90625 38.871094 Z M 141.707031 35.558594 C 142.785156 35.71875 143.753906 35.644531 144.609375 35.339844 C 144.769531 35.28125 144.871094 35.191406 144.894531 35.085938 C 144.921875 34.984375 144.863281 34.878906 144.734375 34.800781 C 143.316406 33.894531 141.542969 33.609375 139.421875 33.941406 C 139.246094 33.96875 139.101562 34.035156 139.027344 34.125 C 138.953125 34.214844 138.957031 34.316406 139.035156 34.40625 C 139.589844 34.988281 140.476562 35.371094 141.707031 35.558594 Z M 141.707031 35.558594 "/>
<path style=" stroke:none;fill-rule:nonzero;fill:rgb(100%,78.431373%,0%);fill-opacity:1;" d="M 231.359375 10.839844 C 231.359375 11.824219 230.726562 12.660156 229.460938 13.355469 C 228.191406 14.050781 226.664062 14.398438 224.871094 14.398438 C 223.078125 14.398438 221.550781 14.050781 220.285156 13.355469 C 219.015625 12.660156 218.382812 11.824219 218.382812 10.839844 C 218.382812 9.859375 219.015625 9.019531 220.285156 8.328125 C 221.550781 7.632812 223.078125 7.285156 224.871094 7.285156 C 226.664062 7.285156 228.191406 7.632812 229.460938 8.328125 C 230.726562 9.019531 231.359375 9.859375 231.359375 10.839844 C 231.359375 10.882812 231.359375 10.925781 231.355469 10.964844 "/>
<path style=" stroke:none;fill-rule:nonzero;fill:rgb(100%,78.431373%,0%);fill-opacity:1;" d="M 6.40625 30.304688 C 2.847656 28.785156 0.796875 26.796875 0.261719 24.328125 C -1.039062 18.359375 2.5 14.410156 10.875 12.488281 C 15.53125 11.410156 20.078125 11.261719 24.515625 12.039062 C 27.78125 12.609375 30.597656 13.605469 32.957031 15.019531 C 35.058594 16.28125 36.480469 17.863281 37.21875 19.765625 C 39.074219 24.542969 36.476562 28.199219 29.429688 30.734375 C 25.757812 32.058594 22 32.703125 18.152344 32.667969 C 13.9375 32.628906 10.023438 31.839844 6.40625 30.304688 Z M 15.011719 22.59375 L 13.15625 21.636719 C 12.792969 21.445312 12.382812 21.324219 11.996094 21.296875 C 8.054688 20.984375 7.300781 21.800781 9.726562 23.753906 C 11.210938 24.949219 13.132812 25.839844 15.496094 26.421875 C 15.890625 26.519531 16.355469 26.488281 16.714844 26.347656 C 20.0625 24.976562 23.164062 23.457031 26.023438 21.789062 C 26.964844 21.238281 27.578125 20.699219 27.863281 20.175781 C 28.613281 18.808594 27.496094 18.277344 24.515625 18.582031 C 24.132812 18.617188 23.71875 18.738281 23.339844 18.929688 L 16.078125 22.585938 C 15.769531 22.738281 15.308594 22.742188 15.011719 22.59375 Z M 15.011719 22.59375 "/>
<path style=" stroke:none;fill-rule:nonzero;fill:rgb(100%,78.431373%,0%);fill-opacity:1;" d="M 92.175781 22.078125 C 92.175781 24.878906 90.140625 27.566406 86.523438 29.550781 C 82.90625 31.53125 78 32.644531 72.886719 32.644531 C 67.773438 32.644531 62.867188 31.53125 59.25 29.550781 C 55.632812 27.566406 53.597656 24.878906 53.597656 22.078125 C 53.597656 19.273438 55.632812 16.585938 59.25 14.605469 C 62.867188 12.621094 67.773438 11.507812 72.886719 11.507812 C 78 11.507812 82.90625 12.621094 86.523438 14.605469 C 90.140625 16.585938 92.175781 19.273438 92.175781 22.078125 Z M 73.648438 19.378906 C 73.082031 19.566406 72.375 19.566406 71.808594 19.378906 L 67.699219 18.042969 C 66.992188 17.824219 66.105469 17.890625 65.535156 18.207031 C 64.96875 18.523438 64.859375 19.011719 65.277344 19.394531 L 67.765625 21.621094 C 68.113281 21.929688 68.117188 22.320312 67.78125 22.628906 L 65.347656 24.882812 C 64.9375 25.265625 65.054688 25.753906 65.628906 26.066406 C 66.207031 26.382812 67.09375 26.441406 67.792969 26.214844 L 71.875 24.84375 C 72.441406 24.660156 73.152344 24.660156 73.71875 24.84375 L 77.824219 26.179688 C 78.53125 26.402344 79.417969 26.332031 79.988281 26.015625 C 80.558594 25.699219 80.664062 25.210938 80.246094 24.828125 L 77.757812 22.601562 C 77.414062 22.292969 77.40625 21.902344 77.742188 21.589844 L 80.191406 19.339844 C 80.609375 18.953125 80.496094 18.460938 79.910156 18.144531 C 79.328125 17.832031 78.429688 17.773438 77.730469 18.003906 Z M 73.648438 19.378906 "/>
<path style=" stroke:none;fill-rule:nonzero;fill:rgb(100%,78.431373%,0%);fill-opacity:1;" d="M 190.40625 35.695312 C 186.441406 38.652344 181.097656 39.652344 174.371094 38.703125 C 172.082031 38.375 170.792969 37.570312 170.496094 36.285156 C 169.980469 34.082031 170.175781 31.894531 171.078125 29.71875 C 172.777344 25.609375 174.316406 21.472656 175.699219 17.308594 C 175.804688 16.992188 176.308594 16.761719 176.890625 16.761719 L 187.074219 16.761719 C 187.300781 16.761719 187.519531 16.816406 187.664062 16.917969 C 187.808594 17.015625 187.867188 17.144531 187.820312 17.269531 C 185.910156 22.082031 184.066406 26.882812 182.285156 31.675781 C 181.972656 32.523438 181.902344 33.203125 182.078125 33.707031 C 182.539062 35.03125 183.964844 35.3125 186.351562 34.550781 C 188.402344 33.902344 189.664062 32.960938 190.144531 31.722656 L 195.746094 17.363281 C 195.882812 17.011719 196.4375 16.761719 197.078125 16.761719 L 206.71875 16.761719 C 207.042969 16.761719 207.351562 16.84375 207.554688 16.984375 C 207.757812 17.121094 207.835938 17.308594 207.769531 17.480469 L 201.863281 33.03125 C 201.464844 34.058594 202.238281 34.652344 204.175781 34.808594 C 206.101562 34.964844 207.707031 34.628906 208.988281 33.800781 C 209.734375 33.3125 210.355469 32.515625 210.84375 31.402344 C 212.84375 26.832031 214.679688 22.082031 216.347656 17.148438 C 216.421875 16.925781 216.777344 16.761719 217.191406 16.761719 L 227.222656 16.761719 C 227.570312 16.761719 227.894531 16.847656 228.109375 16.996094 C 228.324219 17.144531 228.40625 17.339844 228.332031 17.527344 C 226.253906 22.558594 224.335938 27.542969 222.574219 32.480469 C 222.023438 34.046875 223.652344 34.867188 227.472656 34.941406 C 227.820312 34.949219 228.132812 35.050781 228.304688 35.214844 C 228.472656 35.378906 228.472656 35.582031 228.304688 35.746094 C 225.574219 38.445312 221.832031 39.550781 217.082031 39.058594 C 213.871094 38.730469 211.980469 37.847656 211.410156 36.40625 C 211.226562 35.945312 210.828125 35.882812 210.21875 36.214844 C 205.839844 38.636719 201.039062 39.515625 195.816406 38.847656 C 194.230469 38.644531 193.050781 38.253906 192.277344 37.671875 C 191.539062 37.121094 191.078125 36.484375 190.890625 35.761719 C 190.828125 35.523438 190.664062 35.503906 190.40625 35.695312 Z M 190.40625 35.695312 "/>
<path style=" stroke:none;fill-rule:nonzero;fill:rgb(100%,78.431373%,0%);fill-opacity:1;" d="M 247.5625 19.242188 L 240.851562 19.402344 C 240.617188 19.40625 240.398438 19.476562 240.265625 19.589844 C 240.128906 19.707031 240.089844 19.855469 240.160156 19.992188 C 241.222656 22.136719 239.792969 23.191406 235.871094 23.160156 C 233.859375 23.144531 232.804688 22.589844 232.703125 21.484375 C 232.535156 19.683594 233.796875 18.378906 236.480469 17.574219 C 237.945312 17.132812 240.324219 16.882812 243.605469 16.824219 C 249.820312 16.707031 255.929688 16.699219 261.925781 16.800781 C 262.128906 16.804688 262.316406 16.867188 262.414062 16.964844 C 262.511719 17.0625 262.511719 17.179688 262.410156 17.277344 L 243.675781 35.042969 C 243.222656 35.472656 243.425781 35.679688 244.285156 35.664062 L 251.835938 35.558594 C 252.640625 35.542969 252.789062 35.34375 252.28125 34.957031 C 251.421875 34.308594 251.261719 33.691406 251.796875 33.109375 C 252.230469 32.636719 253.015625 32.308594 254.148438 32.121094 C 255.964844 31.824219 257.535156 32.058594 258.851562 32.820312 C 259.15625 32.992188 259.332031 33.230469 259.351562 33.496094 C 259.554688 35.496094 258.375 36.964844 255.808594 37.902344 C 254.277344 38.457031 251.71875 38.773438 248.128906 38.847656 C 242.0625 38.972656 235.941406 39.003906 229.769531 38.9375 C 229.367188 38.933594 229.003906 38.808594 228.808594 38.613281 C 228.613281 38.417969 228.617188 38.179688 228.816406 37.984375 L 247.910156 19.605469 C 248.175781 19.347656 248.0625 19.226562 247.5625 19.242188 Z M 247.5625 19.242188 "/>
<path style=" stroke:none;fill-rule:nonzero;fill:rgb(100%,78.431373%,0%);fill-opacity:1;" d="M 280.160156 37.300781 C 277.273438 38.34375 274.820312 38.9375 272.796875 39.082031 C 267.3125 39.476562 263.878906 38.355469 262.503906 35.714844 C 261.832031 34.433594 261.839844 33.011719 262.53125 31.457031 C 263.242188 29.84375 263.609375 29.011719 263.625 28.960938 C 264.964844 25.042969 266.472656 21.144531 268.148438 17.261719 C 268.25 17.035156 268.597656 16.871094 268.996094 16.867188 L 279.164062 16.792969 C 279.429688 16.792969 279.675781 16.859375 279.839844 16.980469 C 280.003906 17.097656 280.066406 17.257812 280.007812 17.40625 C 277.886719 22.523438 275.953125 27.484375 274.210938 32.296875 C 273.695312 33.71875 274.3125 34.523438 276.066406 34.714844 C 277.21875 34.84375 278.371094 34.628906 279.523438 34.070312 C 281.164062 33.273438 282.179688 32.367188 282.566406 31.355469 C 284.300781 26.808594 286.066406 22.167969 287.867188 17.429688 C 288.011719 17.046875 288.617188 16.769531 289.320312 16.769531 L 299.433594 16.800781 C 299.601562 16.800781 299.761719 16.84375 299.871094 16.917969 C 299.976562 16.988281 300.019531 17.085938 299.984375 17.179688 C 297.007812 25.453125 293.820312 33.703125 290.425781 41.925781 C 289.300781 44.628906 287.832031 46.535156 286.027344 47.636719 C 282.992188 49.488281 279.070312 50.207031 274.265625 49.78125 C 270.90625 49.488281 268.464844 48.628906 266.933594 47.203125 C 264.886719 45.300781 265.421875 43.441406 268.539062 41.613281 C 269.5625 41.019531 270.972656 40.476562 272.769531 39.984375 C 274.808594 39.429688 276.433594 39.066406 277.640625 38.894531 C 279.238281 38.660156 280.230469 38.183594 280.617188 37.460938 C 280.753906 37.199219 280.601562 37.144531 280.160156 37.300781 Z M 273.171875 45.710938 C 275.941406 45.949219 277.570312 45.082031 278.070312 43.109375 C 278.28125 42.269531 278.5625 41.558594 278.914062 40.980469 C 279.273438 40.363281 278.894531 40.160156 277.78125 40.378906 C 274.964844 40.921875 272.757812 41.886719 271.152344 43.285156 C 269.585938 44.652344 270.257812 45.460938 273.171875 45.710938 Z M 273.171875 45.710938 "/>
<path style=" stroke:none;fill-rule:nonzero;fill:rgb(70.588235%,61.176471%,6.666667%);fill-opacity:0.972549;" d="M 105.523438 29.460938 L 105.914062 38.515625 C 105.921875 38.761719 106.050781 38.785156 106.300781 38.582031 L 106.796875 38.179688 L 106.851562 43.292969 C 106.863281 43.59375 106.621094 43.847656 106.285156 43.882812 C 106.046875 43.902344 105.828125 43.832031 105.636719 43.667969 C 105.523438 43.570312 105.480469 43.441406 105.496094 43.292969 C 105.671875 41.648438 105.519531 40.011719 105.039062 38.378906 Z M 105.523438 29.460938 "/>
<path style=" stroke:none;fill-rule:nonzero;fill:rgb(100%,78.431373%,0%);fill-opacity:1;" d="M 20.851562 36.203125 C 19.652344 35.601562 19.960938 35.359375 21.777344 35.472656 C 22.210938 35.5 22.652344 35.480469 23.105469 35.414062 C 24.914062 35.152344 26.515625 35.265625 27.90625 35.761719 C 38.671875 39.628906 49.621094 40 60.753906 36.878906 C 60.828125 36.855469 61.59375 36.582031 63.050781 36.058594 C 65.125 35.300781 67.707031 35.175781 70.796875 35.6875 C 70.957031 35.710938 71.082031 35.78125 71.125 35.871094 C 71.171875 35.957031 71.128906 36.050781 71.019531 36.117188 C 68.824219 37.464844 66.191406 38.550781 63.117188 39.386719 C 47.539062 43.601562 33.449219 42.539062 20.851562 36.203125 Z M 20.851562 36.203125 "/>
</g>
</svg>
