<?xml version="1.0" encoding="UTF-8" standalone="no"?>
<!DOCTYPE svg PUBLIC "-//W3C//DTD SVG 1.1//EN" "http://www.w3.org/Graphics/SVG/1.1/DTD/svg11.dtd">
<svg xmlns="http://www.w3.org/2000/svg" version="1.1" viewBox="0 0 300 300">
<g stroke-width="2.00" fill="none" stroke-linecap="butt">
<path stroke="#cccc92" vector-effect="non-scaling-stroke" d="
  M 73.73 112.82
  L 64.50 122.21"
/>
<path stroke="#dadb95" vector-effect="non-scaling-stroke" d="
  M 64.50 122.21
  L 58.75 128.21"
/>
<path stroke="#e5e799" vector-effect="non-scaling-stroke" d="
  M 58.75 128.21
  L 50.50 136.46"
/>
<path stroke="#f5f79b" vector-effect="non-scaling-stroke" d="
  M 50.50 136.46
  L 38.92 148.21
  A 0.84 0.52 -41.6 0 0 38.67 149.05
  Q 38.88 149.39 39.50 149.24
  Q 42.23 148.56 44.98 148.75
  Q 48.97 149.02 49.04 149.02
  Q 52.72 149.04 56.68 148.90"
/>
<path stroke="#e5e799" vector-effect="non-scaling-stroke" d="
  M 56.68 148.90
  L 61.21 148.98
  A 1.80 1.63 16.3 0 0 62.65 148.28
  L 66.69 142.56"
/>
<path stroke="#dadb95" vector-effect="non-scaling-stroke" d="
  M 66.69 142.56
  Q 70.29 138.52 71.78 135.48"
/>
<path stroke="#cccc92" vector-effect="non-scaling-stroke" d="
  M 71.78 135.48
  L 80.00 124.34"
/>
<path stroke="#babb8e" vector-effect="non-scaling-stroke" d="
  M 80.00 124.34
  L 92.22 107.16
  Q 92.52 106.75 92.01 106.70
  Q 86.25 106.17 80.49 106.70
  A 1.45 1.38 19.0 0 0 79.64 107.09
  L 73.73 112.82"
/>
<path stroke="#868821" vector-effect="non-scaling-stroke" d="
  M 80.00 124.34
  Q 75.74 119.13 73.73 112.82"
/>
<path stroke="#a7a828" vector-effect="non-scaling-stroke" d="
  M 71.78 135.48
  L 64.50 122.21"
/>
<path stroke="#c0c22f" vector-effect="non-scaling-stroke" d="
  M 66.69 142.56
  Q 61.87 135.83 58.75 128.21"
/>
<path stroke="#dbde35" vector-effect="non-scaling-stroke" d="
  M 56.68 148.90
  Q 54.48 142.24 50.50 136.46"
/>
<path stroke="#babb8e" vector-effect="non-scaling-stroke" d="
  M 88.75 117.21
  Q 84.19 122.60 81.52 127.64"
/>
<path stroke="#cccc92" vector-effect="non-scaling-stroke" d="
  M 81.52 127.64
  L 72.00 140.46"
/>
<path stroke="#dadb95" vector-effect="non-scaling-stroke" d="
  M 72.00 140.46
  L 65.26 149.74
  A 0.98 0.95 45.4 0 0 65.27 150.88
  L 95.51 192.78
  A 0.60 0.57 57.3 0 0 96.26 192.96
  Q 98.16 191.94 99.11 190.36"
/>
<path stroke="#cccc92" vector-effect="non-scaling-stroke" d="
  M 99.11 190.36
  L 109.00 180.54"
/>
<path stroke="#babb8e" vector-effect="non-scaling-stroke" d="
  M 109.00 180.54
  L 118.30 171.02"
/>
<path stroke="#abac8a" vector-effect="non-scaling-stroke" d="
  M 118.30 171.02
  L 124.94 164.31"
/>
<path stroke="#a2a287" vector-effect="non-scaling-stroke" d="
  M 124.94 164.31
  L 129.27 159.93"
/>
<path stroke="#989885" vector-effect="non-scaling-stroke" d="
  M 129.27 159.93
  L 138.70 150.68
  A 0.80 0.78 45.3 0 0 138.69 149.56
  L 115.00 126.21"
/>
<path stroke="#a2a287" vector-effect="non-scaling-stroke" d="
  M 115.00 126.21
  L 100.79 112.25"
/>
<path stroke="#abac8a" vector-effect="non-scaling-stroke" d="
  M 100.79 112.25
  L 96.15 107.80
  A 0.48 0.47 -50.7 0 0 95.44 107.88
  L 88.75 117.21"
/>
<path stroke="#4e4f12" vector-effect="non-scaling-stroke" d="
  M 100.79 112.25
  Q 99.64 112.95 100.25 114.75
  Q 102.28 120.73 103.53 122.96
  Q 109.09 132.86 114.43 142.88
  Q 120.03 153.41 124.94 164.31"
/>
<path stroke="#666819" vector-effect="non-scaling-stroke" d="
  M 118.30 171.02
  Q 112.24 157.92 106.75 149.00
  Q 105.06 146.25 104.11 143.78
  Q 102.50 139.61 101.86 138.45
  Q 99.01 133.30 95.94 128.29
  Q 95.90 128.24 93.06 122.88
  Q 91.38 119.72 88.75 117.21"
/>
<path stroke="#3b3b0d" vector-effect="non-scaling-stroke" d="
  M 115.00 126.21
  Q 113.94 128.99 115.69 132.56
  Q 117.20 135.65 118.38 137.63
  Q 120.92 141.87 121.26 142.58
  Q 125.43 151.14 129.27 159.93"
/>
<path stroke="#868821" vector-effect="non-scaling-stroke" d="
  M 109.00 180.54
  Q 107.64 180.26 107.25 178.75
  Q 106.68 176.59 106.73 174.75
  Q 106.74 174.22 106.52 173.82
  L 81.52 127.64"
/>
<path stroke="#a7a828" vector-effect="non-scaling-stroke" d="
  M 99.11 190.36
  Q 97.31 187.36 95.89 184.16
  Q 93.89 179.68 92.92 177.86
  Q 86.64 166.12 80.36 154.39
  Q 78.86 151.60 76.16 147.43
  Q 73.96 144.02 72.00 140.46"
/>
<path stroke="#dddd95" vector-effect="non-scaling-stroke" d="
  M 211.50 135.91
  A 0.92 0.92 0.0 0 0 210.58 134.99
  L 208.22 134.99
  A 0.92 0.92 0.0 0 0 207.30 135.91
  L 207.30 137.81
  A 0.92 0.92 0.0 0 0 208.22 138.73
  L 210.58 138.73
  A 0.92 0.92 0.0 0 0 211.50 137.81
  L 211.50 135.91"
/>
<path stroke="#dddd95" vector-effect="non-scaling-stroke" d="
  M 167.69 170.99
  Q 167.00 171.08 166.34 171.28
  Q 165.43 171.56 165.08 172.23
  Q 164.39 173.56 166.75 173.75
  Q 171.75 174.16 174.69 173.76
  A 0.55 0.53 -6.6 0 0 175.17 173.18
  Q 174.96 171.13 172.69 170.85
  A 0.59 0.56 3.0 0 1 172.17 170.30
  L 172.01 145.17
  A 0.91 0.89 -87.1 0 0 171.22 144.28
  Q 169.20 144.04 168.45 145.19
  A 0.90 0.89 29.6 0 1 167.30 145.50
  Q 162.62 143.12 159.12 144.94
  Q 156.14 146.49 154.87 150.72
  Q 153.98 153.67 154.24 156.78
  Q 154.52 160.08 156.07 162.46
  Q 159.70 168.02 167.61 164.38
  A 0.45 0.44 -12.7 0 1 168.25 164.78
  L 168.21 170.44
  A 0.60 0.56 -3.6 0 1 167.69 170.99"
/>
<path stroke="#dddd95" vector-effect="non-scaling-stroke" d="
  M 197.78 162.19
  L 197.19 145.06
  A 0.66 0.62 -85.6 0 0 196.70 144.45
  Q 194.63 144.04 192.50 144.26
  Q 189.28 144.59 191.20 146.59
  Q 191.39 146.78 192.05 147.04
  L 192.76 147.31
  A 0.90 0.68 -84.9 0 1 193.22 148.05
  Q 193.55 152.58 193.53 157.13
  Q 193.52 160.13 192.19 161.47
  Q 190.35 163.30 187.17 162.81
  Q 184.03 162.32 183.98 159.24
  L 183.75 145.25
  A 0.72 0.66 -82.8 0 0 183.28 144.59
  Q 180.70 143.79 178.05 144.43
  A 0.83 0.64 -7.6 0 0 177.43 145.05
  Q 177.36 146.14 179.18 147.56
  A 1.60 1.58 20.9 0 1 179.78 148.88
  Q 179.56 153.59 180.05 157.93
  Q 180.54 162.37 182.67 164.27
  Q 186.50 167.71 193.18 163.93
  A 0.51 0.51 -23.5 0 1 193.92 164.22
  Q 194.49 166.06 196.04 165.85
  Q 196.85 165.74 196.98 165.74
  Q 202.45 165.54 198.25 162.95
  A 1.01 0.89 16.7 0 1 197.78 162.19"
/>
<path stroke="#dddd95" vector-effect="non-scaling-stroke" d="
  M 207.23 147.82
  Q 207.69 153.63 207.53 159.47
  Q 207.52 159.57 207.61 161.02
  Q 207.73 163.13 205.56 163.10
  A 1.30 0.83 14.2 0 0 204.69 163.39
  Q 203.92 164.20 204.34 165.24
  A 0.81 0.72 -9.5 0 0 205.07 165.70
  L 213.01 165.75
  A 1.43 1.37 25.5 0 0 213.91 165.45
  Q 216.19 163.64 212.31 163.00
  A 0.99 0.97 3.9 0 1 211.48 162.06
  L 211.18 145.05
  A 0.60 0.59 -84.8 0 0 210.70 144.46
  Q 207.75 143.89 204.79 144.46
  A 0.61 0.60 -6.8 0 0 204.30 145.07
  Q 204.39 147.20 206.68 147.31
  A 0.58 0.55 -1.1 0 1 207.23 147.82"
/>
<path stroke="#dadb95" vector-effect="non-scaling-stroke" d="
  M 224.35 162.27
  Q 228.73 155.77 233.69 149.69
  Q 235.34 147.66 235.95 145.18
  A 0.43 0.41 -82.2 0 0 235.56 144.65
  L 220.30 144.30
  A 0.64 0.61 -82.4 0 0 219.69 144.79
  Q 219.09 147.45 219.80 150.08
  A 0.89 0.87 89.8 0 0 220.42 150.71
  Q 223.12 151.44 222.76 148.59
  A 1.19 1.19 86.4 0 1 223.94 147.25
  L 229.50 147.25
  Q 231.31 147.25 230.20 148.68
  Q 224.97 155.38 220.10 162.34
  Q 217.60 165.93 221.75 165.86
  Q 228.38 165.75 235.49 165.75
  A 0.94 0.90 -2.2 0 0 236.43 164.78
  L 236.01 160.06
  A 0.80 0.76 -84.6 0 0 235.47 159.38
  Q 233.42 158.77 232.79 162.11
  A 0.78 0.77 -84.6 0 1 232.03 162.75
  L 224.56 162.70
  Q 224.06 162.70 224.35 162.27"
/>
<path stroke="#dadb95" vector-effect="non-scaling-stroke" d="
  M 255.56 147.80
  L 251.51 159.73
  Q 251.33 160.25 251.14 159.72
  L 247.06 148.19
  A 0.79 0.79 72.5 0 1 247.53 147.18
  Q 249.52 146.43 249.12 145.02
  A 0.86 0.74 -1.3 0 0 248.45 144.47
  Q 245.53 143.95 242.61 144.40
  Q 242.47 144.42 241.40 144.53
  Q 239.38 144.75 241.27 146.38
  Q 242.39 147.35 243.00 148.69
  Q 246.16 155.65 248.87 162.96
  Q 250.05 166.15 248.03 169.17
  A 3.85 3.80 -83.2 0 1 246.22 170.61
  Q 242.73 171.91 243.54 173.52
  A 1.25 0.97 -1.5 0 0 244.30 174.08
  Q 247.35 174.88 249.46 172.47
  Q 251.42 170.24 252.47 167.45
  Q 255.77 158.74 258.94 149.98
  Q 259.70 147.87 261.50 146.14
  Q 263.48 144.23 260.75 144.25
  L 254.81 144.30
  A 1.08 1.03 18.3 0 0 253.98 144.69
  Q 252.49 146.52 255.21 147.21
  A 0.48 0.45 15.9 0 1 255.56 147.80"
/>
<path stroke="#eaeb99" vector-effect="non-scaling-stroke" d="
  M 72.34 185.98
  Q 76.15 188.11 80.24 189.30
  Q 85.90 190.93 91.40 192.72
  Q 92.16 192.96 91.69 192.32
  L 63.54 153.40
  Q 62.34 151.74 60.34 151.75
  L 53.25 151.79"
/>
<path stroke="#f5f79b" vector-effect="non-scaling-stroke" d="
  M 53.25 151.79
  L 39.32 152.06
  Q 37.91 152.09 38.99 152.99
  Q 42.47 155.89 45.61 159.15
  Q 58.74 172.77 72.34 185.98"
/>
<path stroke="#e0e335" vector-effect="non-scaling-stroke" d="
  M 53.25 151.79
  Q 55.25 152.25 56.50 152.00
  Q 58.83 151.53 57.98 153.32
  A 1.09 0.99 -46.4 0 0 57.96 154.21
  Q 60.46 159.73 63.87 164.74
  Q 63.90 164.79 65.12 166.29
  Q 66.20 167.62 66.94 169.81
  Q 68.58 174.73 72.23 181.34
  Q 72.27 181.42 73.00 182.46
  Q 74.20 184.18 72.34 185.98"
/>
<path stroke="#dddd95" vector-effect="non-scaling-stroke" d="
  M 168.3672 151.9441
  A 4.70 4.70 0.0 0 0 163.7834 147.1307
  L 163.1036 147.1141
  A 4.70 4.70 0.0 0 0 158.2902 151.6978
  L 158.1328 158.1359
  A 4.70 4.70 0.0 0 0 162.7166 162.9493
  L 163.3964 162.9659
  A 4.70 4.70 0.0 0 0 168.2098 158.3822
  L 168.3672 151.9441"
/>
</g>
<path fill="#ffffff" d="
  M 0.00 0.00
  L 300.00 0.00
  L 300.00 300.00
  L 0.00 300.00
  L 0.00 0.00
  Z
  M 73.73 112.82
  L 64.50 122.21
  L 58.75 128.21
  L 50.50 136.46
  L 38.92 148.21
  A 0.84 0.52 -41.6 0 0 38.67 149.05
  Q 38.88 149.39 39.50 149.24
  Q 42.23 148.56 44.98 148.75
  Q 48.97 149.02 49.04 149.02
  Q 52.72 149.04 56.68 148.90
  L 61.21 148.98
  A 1.80 1.63 16.3 0 0 62.65 148.28
  L 66.69 142.56
  Q 70.29 138.52 71.78 135.48
  L 80.00 124.34
  L 92.22 107.16
  Q 92.52 106.75 92.01 106.70
  Q 86.25 106.17 80.49 106.70
  A 1.45 1.38 19.0 0 0 79.64 107.09
  L 73.73 112.82
  Z
  M 88.75 117.21
  Q 84.19 122.60 81.52 127.64
  L 72.00 140.46
  L 65.26 149.74
  A 0.98 0.95 45.4 0 0 65.27 150.88
  L 95.51 192.78
  A 0.60 0.57 57.3 0 0 96.26 192.96
  Q 98.16 191.94 99.11 190.36
  L 109.00 180.54
  L 118.30 171.02
  L 124.94 164.31
  L 129.27 159.93
  L 138.70 150.68
  A 0.80 0.78 45.3 0 0 138.69 149.56
  L 115.00 126.21
  L 100.79 112.25
  L 96.15 107.80
  A 0.48 0.47 -50.7 0 0 95.44 107.88
  L 88.75 117.21
  Z
  M 211.50 135.91
  A 0.92 0.92 0.0 0 0 210.58 134.99
  L 208.22 134.99
  A 0.92 0.92 0.0 0 0 207.30 135.91
  L 207.30 137.81
  A 0.92 0.92 0.0 0 0 208.22 138.73
  L 210.58 138.73
  A 0.92 0.92 0.0 0 0 211.50 137.81
  L 211.50 135.91
  Z
  M 167.69 170.99
  Q 167.00 171.08 166.34 171.28
  Q 165.43 171.56 165.08 172.23
  Q 164.39 173.56 166.75 173.75
  Q 171.75 174.16 174.69 173.76
  A 0.55 0.53 -6.6 0 0 175.17 173.18
  Q 174.96 171.13 172.69 170.85
  A 0.59 0.56 3.0 0 1 172.17 170.30
  L 172.01 145.17
  A 0.91 0.89 -87.1 0 0 171.22 144.28
  Q 169.20 144.04 168.45 145.19
  A 0.90 0.89 29.6 0 1 167.30 145.50
  Q 162.62 143.12 159.12 144.94
  Q 156.14 146.49 154.87 150.72
  Q 153.98 153.67 154.24 156.78
  Q 154.52 160.08 156.07 162.46
  Q 159.70 168.02 167.61 164.38
  A 0.45 0.44 -12.7 0 1 168.25 164.78
  L 168.21 170.44
  A 0.60 0.56 -3.6 0 1 167.69 170.99
  Z
  M 197.78 162.19
  L 197.19 145.06
  A 0.66 0.62 -85.6 0 0 196.70 144.45
  Q 194.63 144.04 192.50 144.26
  Q 189.28 144.59 191.20 146.59
  Q 191.39 146.78 192.05 147.04
  L 192.76 147.31
  A 0.90 0.68 -84.9 0 1 193.22 148.05
  Q 193.55 152.58 193.53 157.13
  Q 193.52 160.13 192.19 161.47
  Q 190.35 163.30 187.17 162.81
  Q 184.03 162.32 183.98 159.24
  L 183.75 145.25
  A 0.72 0.66 -82.8 0 0 183.28 144.59
  Q 180.70 143.79 178.05 144.43
  A 0.83 0.64 -7.6 0 0 177.43 145.05
  Q 177.36 146.14 179.18 147.56
  A 1.60 1.58 20.9 0 1 179.78 148.88
  Q 179.56 153.59 180.05 157.93
  Q 180.54 162.37 182.67 164.27
  Q 186.50 167.71 193.18 163.93
  A 0.51 0.51 -23.5 0 1 193.92 164.22
  Q 194.49 166.06 196.04 165.85
  Q 196.85 165.74 196.98 165.74
  Q 202.45 165.54 198.25 162.95
  A 1.01 0.89 16.7 0 1 197.78 162.19
  Z
  M 207.23 147.82
  Q 207.69 153.63 207.53 159.47
  Q 207.52 159.57 207.61 161.02
  Q 207.73 163.13 205.56 163.10
  A 1.30 0.83 14.2 0 0 204.69 163.39
  Q 203.92 164.20 204.34 165.24
  A 0.81 0.72 -9.5 0 0 205.07 165.70
  L 213.01 165.75
  A 1.43 1.37 25.5 0 0 213.91 165.45
  Q 216.19 163.64 212.31 163.00
  A 0.99 0.97 3.9 0 1 211.48 162.06
  L 211.18 145.05
  A 0.60 0.59 -84.8 0 0 210.70 144.46
  Q 207.75 143.89 204.79 144.46
  A 0.61 0.60 -6.8 0 0 204.30 145.07
  Q 204.39 147.20 206.68 147.31
  A 0.58 0.55 -1.1 0 1 207.23 147.82
  Z
  M 224.35 162.27
  Q 228.73 155.77 233.69 149.69
  Q 235.34 147.66 235.95 145.18
  A 0.43 0.41 -82.2 0 0 235.56 144.65
  L 220.30 144.30
  A 0.64 0.61 -82.4 0 0 219.69 144.79
  Q 219.09 147.45 219.80 150.08
  A 0.89 0.87 89.8 0 0 220.42 150.71
  Q 223.12 151.44 222.76 148.59
  A 1.19 1.19 86.4 0 1 223.94 147.25
  L 229.50 147.25
  Q 231.31 147.25 230.20 148.68
  Q 224.97 155.38 220.10 162.34
  Q 217.60 165.93 221.75 165.86
  Q 228.38 165.75 235.49 165.75
  A 0.94 0.90 -2.2 0 0 236.43 164.78
  L 236.01 160.06
  A 0.80 0.76 -84.6 0 0 235.47 159.38
  Q 233.42 158.77 232.79 162.11
  A 0.78 0.77 -84.6 0 1 232.03 162.75
  L 224.56 162.70
  Q 224.06 162.70 224.35 162.27
  Z
  M 255.56 147.80
  L 251.51 159.73
  Q 251.33 160.25 251.14 159.72
  L 247.06 148.19
  A 0.79 0.79 72.5 0 1 247.53 147.18
  Q 249.52 146.43 249.12 145.02
  A 0.86 0.74 -1.3 0 0 248.45 144.47
  Q 245.53 143.95 242.61 144.40
  Q 242.47 144.42 241.40 144.53
  Q 239.38 144.75 241.27 146.38
  Q 242.39 147.35 243.00 148.69
  Q 246.16 155.65 248.87 162.96
  Q 250.05 166.15 248.03 169.17
  A 3.85 3.80 -83.2 0 1 246.22 170.61
  Q 242.73 171.91 243.54 173.52
  A 1.25 0.97 -1.5 0 0 244.30 174.08
  Q 247.35 174.88 249.46 172.47
  Q 251.42 170.24 252.47 167.45
  Q 255.77 158.74 258.94 149.98
  Q 259.70 147.87 261.50 146.14
  Q 263.48 144.23 260.75 144.25
  L 254.81 144.30
  A 1.08 1.03 18.3 0 0 253.98 144.69
  Q 252.49 146.52 255.21 147.21
  A 0.48 0.45 15.9 0 1 255.56 147.80
  Z
  M 72.34 185.98
  Q 76.15 188.11 80.24 189.30
  Q 85.90 190.93 91.40 192.72
  Q 92.16 192.96 91.69 192.32
  L 63.54 153.40
  Q 62.34 151.74 60.34 151.75
  L 53.25 151.79
  L 39.32 152.06
  Q 37.91 152.09 38.99 152.99
  Q 42.47 155.89 45.61 159.15
  Q 58.74 172.77 72.34 185.98
  Z"
/>
<path fill="#74761d" d="
  M 80.00 124.34
  Q 75.74 119.13 73.73 112.82
  L 79.64 107.09
  A 1.45 1.38 19.0 0 1 80.49 106.70
  Q 86.25 106.17 92.01 106.70
  Q 92.52 106.75 92.22 107.16
  L 80.00 124.34
  Z"
/>
<path fill="#575915" d="
  M 100.79 112.25
  Q 99.64 112.95 100.25 114.75
  Q 102.28 120.73 103.53 122.96
  Q 109.09 132.86 114.43 142.88
  Q 120.03 153.41 124.94 164.31
  L 118.30 171.02
  Q 112.24 157.92 106.75 149.00
  Q 105.06 146.25 104.11 143.78
  Q 102.50 139.61 101.86 138.45
  Q 99.01 133.30 95.94 128.29
  Q 95.90 128.24 93.06 122.88
  Q 91.38 119.72 88.75 117.21
  L 95.44 107.88
  A 0.48 0.47 -50.7 0 1 96.15 107.80
  L 100.79 112.25
  Z"
/>
<path fill="#44450f" d="
  M 100.79 112.25
  L 115.00 126.21
  Q 113.94 128.99 115.69 132.56
  Q 117.20 135.65 118.38 137.63
  Q 120.92 141.87 121.26 142.58
  Q 125.43 151.14 129.27 159.93
  L 124.94 164.31
  Q 120.03 153.41 114.43 142.88
  Q 109.09 132.86 103.53 122.96
  Q 102.28 120.73 100.25 114.75
  Q 99.64 112.95 100.79 112.25
  Z"
/>
<path fill="#989925" d="
  M 73.73 112.82
  Q 75.74 119.13 80.00 124.34
  L 71.78 135.48
  L 64.50 122.21
  L 73.73 112.82
  Z"
/>
<path fill="#74761d" d="
  M 88.75 117.21
  Q 91.38 119.72 93.06 122.88
  Q 95.90 128.24 95.94 128.29
  Q 99.01 133.30 101.86 138.45
  Q 102.50 139.61 104.11 143.78
  Q 105.06 146.25 106.75 149.00
  Q 112.24 157.92 118.30 171.02
  L 109.00 180.54
  Q 107.64 180.26 107.25 178.75
  Q 106.68 176.59 106.73 174.75
  Q 106.74 174.22 106.52 173.82
  L 81.52 127.64
  Q 84.19 122.60 88.75 117.21
  Z"
/>
<path fill="#b5b62b" d="
  M 64.50 122.21
  L 71.78 135.48
  Q 70.29 138.52 66.69 142.56
  Q 61.87 135.83 58.75 128.21
  L 64.50 122.21
  Z"
/>
<path fill="#31310a" d="
  M 115.00 126.21
  L 138.69 149.56
  A 0.80 0.78 45.3 0 1 138.70 150.68
  L 129.27 159.93
  Q 125.43 151.14 121.26 142.58
  Q 120.92 141.87 118.38 137.63
  Q 117.20 135.65 115.69 132.56
  Q 113.94 128.99 115.00 126.21
  Z"
/>
<path fill="#989925" d="
  M 81.52 127.64
  L 106.52 173.82
  Q 106.74 174.22 106.73 174.75
  Q 106.68 176.59 107.25 178.75
  Q 107.64 180.26 109.00 180.54
  L 99.11 190.36
  Q 97.31 187.36 95.89 184.16
  Q 93.89 179.68 92.92 177.86
  Q 86.64 166.12 80.36 154.39
  Q 78.86 151.60 76.16 147.43
  Q 73.96 144.02 72.00 140.46
  L 81.52 127.64
  Z"
/>
<path fill="#cbce32" d="
  M 58.75 128.21
  Q 61.87 135.83 66.69 142.56
  L 62.65 148.28
  A 1.80 1.63 16.3 0 1 61.21 148.98
  L 56.68 148.90
  Q 54.48 142.24 50.50 136.46
  L 58.75 128.21
  Z"
/>
<rect fill="#babb2a" x="207.30" y="134.99" width="4.20" height="3.74" rx="0.92"/>
<path fill="#ebee37" d="
  M 50.50 136.46
  Q 54.48 142.24 56.68 148.90
  Q 52.72 149.04 49.04 149.02
  Q 48.97 149.02 44.98 148.75
  Q 42.23 148.56 39.50 149.24
  Q 38.88 149.39 38.67 149.05
  A 0.84 0.52 -41.6 0 1 38.92 148.21
  L 50.50 136.46
  Z"
/>
<path fill="#b5b62b" d="
  M 72.00 140.46
  Q 73.96 144.02 76.16 147.43
  Q 78.86 151.60 80.36 154.39
  Q 86.64 166.12 92.92 177.86
  Q 93.89 179.68 95.89 184.16
  Q 97.31 187.36 99.11 190.36
  Q 98.16 191.94 96.26 192.96
  A 0.60 0.57 57.3 0 1 95.51 192.78
  L 65.27 150.88
  A 0.98 0.95 45.4 0 1 65.26 149.74
  L 72.00 140.46
  Z"
/>
<path fill="#babb2a" d="
  M 168.21 170.44
  L 168.25 164.78
  A 0.45 0.44 -12.7 0 0 167.61 164.38
  Q 159.70 168.02 156.07 162.46
  Q 154.52 160.08 154.24 156.78
  Q 153.98 153.67 154.87 150.72
  Q 156.14 146.49 159.12 144.94
  Q 162.62 143.12 167.30 145.50
  A 0.90 0.89 29.6 0 0 168.45 145.19
  Q 169.20 144.04 171.22 144.28
  A 0.91 0.89 -87.1 0 1 172.01 145.17
  L 172.17 170.30
  A 0.59 0.56 3.0 0 0 172.69 170.85
  Q 174.96 171.13 175.17 173.18
  A 0.55 0.53 -6.6 0 1 174.69 173.76
  Q 171.75 174.16 166.75 173.75
  Q 164.39 173.56 165.08 172.23
  Q 165.43 171.56 166.34 171.28
  Q 167.00 171.08 167.69 170.99
  A 0.60 0.56 -3.6 0 0 168.21 170.44
  Z
  M 168.3672 151.9441
  A 4.70 4.70 0.0 0 0 163.7834 147.1307
  L 163.1036 147.1141
  A 4.70 4.70 0.0 0 0 158.2902 151.6978
  L 158.1328 158.1359
  A 4.70 4.70 0.0 0 0 162.7166 162.9493
  L 163.3964 162.9659
  A 4.70 4.70 0.0 0 0 168.2098 158.3822
  L 168.3672 151.9441
  Z"
/>
<path fill="#babb2a" d="
  M 198.25 162.95
  Q 202.45 165.54 196.98 165.74
  Q 196.85 165.74 196.04 165.85
  Q 194.49 166.06 193.92 164.22
  A 0.51 0.51 -23.5 0 0 193.18 163.93
  Q 186.50 167.71 182.67 164.27
  Q 180.54 162.37 180.05 157.93
  Q 179.56 153.59 179.78 148.88
  A 1.60 1.58 20.9 0 0 179.18 147.56
  Q 177.36 146.14 177.43 145.05
  A 0.83 0.64 -7.6 0 1 178.05 144.43
  Q 180.70 143.79 183.28 144.59
  A 0.72 0.66 -82.8 0 1 183.75 145.25
  L 183.98 159.24
  Q 184.03 162.32 187.17 162.81
  Q 190.35 163.30 192.19 161.47
  Q 193.52 160.13 193.53 157.13
  Q 193.55 152.58 193.22 148.05
  A 0.90 0.68 -84.9 0 0 192.76 147.31
  L 192.05 147.04
  Q 191.39 146.78 191.20 146.59
  Q 189.28 144.59 192.50 144.26
  Q 194.63 144.04 196.70 144.45
  A 0.66 0.62 -85.6 0 1 197.19 145.06
  L 197.78 162.19
  A 1.01 0.89 16.7 0 0 198.25 162.95
  Z"
/>
<path fill="#babb2a" d="
  M 206.68 147.31
  Q 204.39 147.20 204.30 145.07
  A 0.61 0.60 -6.8 0 1 204.79 144.46
  Q 207.75 143.89 210.70 144.46
  A 0.60 0.59 -84.8 0 1 211.18 145.05
  L 211.48 162.06
  A 0.99 0.97 3.9 0 0 212.31 163.00
  Q 216.19 163.64 213.91 165.45
  A 1.43 1.37 25.5 0 1 213.01 165.75
  L 205.07 165.70
  A 0.81 0.72 -9.5 0 1 204.34 165.24
  Q 203.92 164.20 204.69 163.39
  A 1.30 0.83 14.2 0 1 205.56 163.10
  Q 207.73 163.13 207.61 161.02
  Q 207.52 159.57 207.53 159.47
  Q 207.69 153.63 207.23 147.82
  A 0.58 0.55 -1.1 0 0 206.68 147.31
  Z"
/>
<path fill="#b5b62b" d="
  M 224.56 162.70
  L 232.03 162.75
  A 0.78 0.77 -84.6 0 0 232.79 162.11
  Q 233.42 158.77 235.47 159.38
  A 0.80 0.76 -84.6 0 1 236.01 160.06
  L 236.43 164.78
  A 0.94 0.90 -2.2 0 1 235.49 165.75
  Q 228.38 165.75 221.75 165.86
  Q 217.60 165.93 220.10 162.34
  Q 224.97 155.38 230.20 148.68
  Q 231.31 147.25 229.50 147.25
  L 223.94 147.25
  A 1.19 1.19 86.4 0 0 222.76 148.59
  Q 223.12 151.44 220.42 150.71
  A 0.89 0.87 89.8 0 1 219.80 150.08
  Q 219.09 147.45 219.69 144.79
  A 0.64 0.61 -82.4 0 1 220.30 144.30
  L 235.56 144.65
  A 0.43 0.41 -82.2 0 1 235.95 145.18
  Q 235.34 147.66 233.69 149.69
  Q 228.73 155.77 224.35 162.27
  Q 224.06 162.70 224.56 162.70
  Z"
/>
<path fill="#b5b62b" d="
  M 255.21 147.21
  Q 252.49 146.52 253.98 144.69
  A 1.08 1.03 18.3 0 1 254.81 144.30
  L 260.75 144.25
  Q 263.48 144.23 261.50 146.14
  Q 259.70 147.87 258.94 149.98
  Q 255.77 158.74 252.47 167.45
  Q 251.42 170.24 249.46 172.47
  Q 247.35 174.88 244.30 174.08
  A 1.25 0.97 -1.5 0 1 243.54 173.52
  Q 242.73 171.91 246.22 170.61
  A 3.85 3.80 -83.2 0 0 248.03 169.17
  Q 250.05 166.15 248.87 162.96
  Q 246.16 155.65 243.00 148.69
  Q 242.39 147.35 241.27 146.38
  Q 239.38 144.75 241.40 144.53
  Q 242.47 144.42 242.61 144.40
  Q 245.53 143.95 248.45 144.47
  A 0.86 0.74 -1.3 0 1 249.12 145.02
  Q 249.52 146.43 247.53 147.18
  A 0.79 0.79 70.3 0 0 247.06 148.19
  L 251.14 159.72
  Q 251.33 160.25 251.51 159.73
  L 255.56 147.80
  A 0.48 0.45 15.9 0 0 255.21 147.21
  Z"
/>
<rect fill="#ffffff" x="-5.04" y="-7.92" transform="translate(163.25,155.04) rotate(1.4)" width="10.08" height="15.84" rx="4.70"/>
<path fill="#ebee37" d="
  M 53.25 151.79
  Q 55.25 152.25 56.50 152.00
  Q 58.83 151.53 57.98 153.32
  A 1.09 0.99 -46.4 0 0 57.96 154.21
  Q 60.46 159.73 63.87 164.74
  Q 63.90 164.79 65.12 166.29
  Q 66.20 167.62 66.94 169.81
  Q 68.58 174.73 72.23 181.34
  Q 72.27 181.42 73.00 182.46
  Q 74.20 184.18 72.34 185.98
  Q 58.74 172.77 45.61 159.15
  Q 42.47 155.89 38.99 152.99
  Q 37.91 152.09 39.32 152.06
  L 53.25 151.79
  Z"
/>
<path fill="#d5d732" d="
  M 53.25 151.79
  L 60.34 151.75
  Q 62.34 151.74 63.54 153.40
  L 91.69 192.32
  Q 92.16 192.96 91.40 192.72
  Q 85.90 190.93 80.24 189.30
  Q 76.15 188.11 72.34 185.98
  Q 74.20 184.18 73.00 182.46
  Q 72.27 181.42 72.23 181.34
  Q 68.58 174.73 66.94 169.81
  Q 66.20 167.62 65.12 166.29
  Q 63.90 164.79 63.87 164.74
  Q 60.46 159.73 57.96 154.21
  A 1.09 0.99 -46.4 0 1 57.98 153.32
  Q 58.83 151.53 56.50 152.00
  Q 55.25 152.25 53.25 151.79
  Z"
/>
</svg>
