<?xml version="1.0" encoding="UTF-8" standalone="no"?>
<!DOCTYPE svg PUBLIC "-//W3C//DTD SVG 1.1//EN" "http://www.w3.org/Graphics/SVG/1.1/DTD/svg11.dtd">
<svg xmlns="http://www.w3.org/2000/svg" version="1.1" viewBox="0 0 1080 1080" width="1080" height="1080">
<path fill="#ffc800" d="
  M 270.94 280.56
  Q 268.22 280.45 265.17 280.51
  Q 263.97 280.53 264.75 279.61
  Q 265.95 278.20 267.31 276.80
  Q 309.61 233.13 363.39 204.72
  Q 428.58 170.29 499.75 162.75
  Q 522.91 160.30 552.50 161.25
  Q 592.98 162.55 627.71 171.15
  Q 737.53 198.31 815.41 279.89
  Q 815.75 280.25 815.25 280.26
  Q 780.13 281.06 746.46 291.34
  A 2.25 2.23 55.8 0 1 744.37 290.93
  Q 672.92 232.91 581.75 220.50
  Q 551.65 216.40 517.72 218.70
  Q 507.55 219.38 497.82 220.71
  Q 407.37 233.03 335.07 291.11
  A 1.86 1.84 34.2 0 1 333.35 291.43
  Q 302.48 281.76 270.94 280.56
  Z"
/>
<path fill="#ffc800" d="
  M 395.56 391.94
  Q 452.99 446.02 459.40 525.27
  Q 460.23 535.59 460.01 545.25
  Q 458.96 590.12 438.31 630.81
  Q 420.82 665.29 392.46 690.46
  Q 350.09 728.06 294.75 738.75
  Q 259.82 745.49 224.02 739.63
  Q 171.50 731.04 130.31 698.19
  Q 97.94 672.36 78.27 635.33
  Q 56.28 593.95 54.25 545.50
  Q 53.65 531.31 54.77 520.97
  Q 57.18 498.52 64.17 477.17
  Q 67.24 467.81 71.41 458.54
  Q 98.92 397.42 156.56 364.56
  Q 219.29 328.81 291.61 340.51
  Q 301.63 342.13 311.13 344.75
  Q 359.68 358.15 395.56 391.94
  Z
  M 242.75 541.63
  Q 235.18 549.05 227.66 556.85
  A 0.81 0.81 -45.5 0 1 226.49 556.86
  Q 212.76 542.97 198.56 529.07
  Q 192.27 522.92 188.53 521.05
  Q 182.38 517.98 175.50 518.50
  Q 161.60 519.55 154.05 529.46
  Q 147.81 537.65 148.18 547.81
  Q 148.55 558.43 156.56 566.69
  Q 167.78 578.26 202.16 612.06
  Q 202.23 612.13 204.66 614.60
  Q 207.95 617.97 211.84 620.65
  Q 219.44 625.90 228.75 625.67
  Q 237.64 625.44 244.46 620.91
  Q 246.68 619.44 256.07 610.05
  Q 303.20 562.94 350.40 515.90
  Q 356.94 509.39 358.00 500.50
  Q 359.42 488.66 352.67 478.57
  Q 343.42 464.75 326.50 466.50
  Q 318.92 467.28 312.84 471.96
  Q 312.17 472.48 302.60 482.00
  Q 279.73 504.73 256.99 527.59
  Q 253.50 531.10 242.75 541.63
  Z"
/>
<path fill="#ffc800" d="
  M 1025.50 539.97
  A 202.35 202.35 0.0 0 1 823.15 742.32
  A 202.35 202.35 0.0 0 1 620.80 539.97
  A 202.35 202.35 0.0 0 1 823.15 337.62
  A 202.35 202.35 0.0 0 1 1025.50 539.97
  Z
  M 822.98 580.61
  Q 839.62 597.25 856.31 613.94
  Q 863.68 621.31 873.71 622.45
  Q 883.34 623.54 891.71 619.02
  Q 899.58 614.77 903.43 606.57
  Q 907.05 598.85 905.92 590.51
  Q 904.70 581.57 898.31 575.19
  Q 881.31 558.19 863.69 540.57
  A 0.98 0.97 44.6 0 1 863.67 539.21
  Q 879.47 522.62 894.97 505.96
  Q 900.04 500.51 901.80 496.61
  Q 906.79 485.56 901.50 473.75
  Q 899.07 468.32 894.55 464.14
  Q 890.27 460.20 884.51 458.39
  Q 873.44 454.93 863.68 459.92
  Q 859.12 462.26 849.95 471.43
  Q 835.99 485.39 821.70 499.67
  A 0.73 0.73 -45.1 0 1 820.66 499.67
  Q 806.10 484.82 791.73 470.73
  Q 782.98 462.15 780.53 460.61
  Q 773.68 456.29 765.25 457.00
  Q 748.79 458.39 741.56 471.99
  Q 738.35 478.01 738.17 484.46
  Q 737.98 491.41 741.00 497.50
  Q 743.10 501.72 750.55 509.18
  Q 765.53 524.16 780.70 539.33
  A 0.95 0.95 -44.6 0 1 780.69 540.68
  Q 767.63 553.32 754.74 566.45
  Q 743.45 577.97 741.71 580.89
  Q 736.29 589.97 739.06 601.31
  Q 740.09 605.51 742.09 608.93
  Q 744.36 612.81 747.44 615.31
  Q 762.84 627.84 780.25 619.52
  Q 783.57 617.93 786.66 615.18
  Q 789.18 612.95 792.31 609.81
  Q 806.81 595.31 821.52 580.61
  A 1.03 1.03 -0.0 0 1 822.98 580.61
  Z"
/>
<path fill="#ffc800" d="
  M 804.18 811.68
  Q 721.22 891.60 608.75 913.00
  Q 569.63 920.44 526.75 918.99
  Q 442.53 916.13 369.31 878.69
  Q 310.51 848.61 264.67 800.53
  Q 263.93 799.76 265.00 799.74
  Q 299.90 799.14 333.79 788.65
  A 1.47 1.45 -33.7 0 1 335.14 788.91
  Q 408.67 848.27 502.05 859.68
  Q 512.04 860.90 521.98 861.43
  Q 595.87 865.44 663.94 837.44
  Q 708.01 819.31 746.11 788.81
  A 0.95 0.94 34.3 0 1 746.98 788.65
  Q 780.31 799.20 815.10 799.69
  Q 816.14 799.70 815.42 800.45
  Q 809.78 806.28 804.18 811.68
  Z"
/>
</svg>
