<svg xmlns="http://www.w3.org/2000/svg" xmlns:xlink="http://www.w3.org/1999/xlink" version="1.1" width="1000" height="1000" viewBox="0 0 1000 1000" xml:space="preserve">
<desc>Created with Fabric.js 3.5.0</desc>
<defs>
</defs>
<rect x="0" y="0" width="100%" height="100%" fill="#ffffff"/>
<g transform="matrix(4.6376 0 0 4.6376 193.8664 341.7015)" id="882073">
<path style="stroke: rgb(112,115,27); stroke-width: 2; stroke-dasharray: none; stroke-linecap: butt; stroke-dashoffset: 0; stroke-linejoin: miter; stroke-miterlimit: 4; is-custom-font: none; font-file-url: none; fill: none; fill-rule: nonzero; opacity: 1;" vector-effect="non-scaling-stroke" transform=" translate(-76.145, -108.1671)" d="M 79.79 113 Q 78.34 109.92 78 108.5 Q 77.7 107.22 76.85 106.58 A 1.73 1.35 15.8 0 1 76.3 105.83 Q 75.33 102.72 72.5 104.71" stroke-linecap="round"/>
</g>
<g transform="matrix(4.6376 0 0 4.6376 191.9416 393.1916)" id="840543">
<path style="stroke: rgb(189,190,142); stroke-width: 2; stroke-dasharray: none; stroke-linecap: butt; stroke-dashoffset: 0; stroke-linejoin: miter; stroke-miterlimit: 4; is-custom-font: none; font-file-url: none; fill: none; fill-rule: nonzero; opacity: 1;" vector-effect="non-scaling-stroke" transform=" translate(-75.73, -119.27)" d="M 76.96 118.5 Q 75.37 118.62 74.5 120.04" stroke-linecap="round"/>
</g>
<g transform="matrix(4.6376 0 0 4.6376 170.006 372.8096)" id="530385">
<path style="stroke: rgb(144,145,34); stroke-width: 2; stroke-dasharray: none; stroke-linecap: butt; stroke-dashoffset: 0; stroke-linejoin: miter; stroke-miterlimit: 4; is-custom-font: none; font-file-url: none; fill: none; fill-rule: nonzero; opacity: 1;" vector-effect="non-scaling-stroke" transform=" translate(-71, -114.875)" d="M 74.5 120.04 Q 72.56 118.34 71.75 116.25 Q 70.22 112.33 67.5 109.71" stroke-linecap="round"/>
</g>
<g transform="matrix(4.6376 0 0 4.6376 168.7539 421.5968)" id="313441">
<path style="stroke: rgb(209,209,146); stroke-width: 2; stroke-dasharray: none; stroke-linecap: butt; stroke-dashoffset: 0; stroke-linejoin: miter; stroke-miterlimit: 4; is-custom-font: none; font-file-url: none; fill: none; fill-rule: nonzero; opacity: 1;" vector-effect="non-scaling-stroke" transform=" translate(-70.73, -125.395)" d="M 74.5 120.04 L 66.96 130.75" stroke-linecap="round"/>
</g>
<g transform="matrix(4.6376 0 0 4.6376 132.2329 417.9332)" id="949868">
<path style="stroke: rgb(177,179,42); stroke-width: 2; stroke-dasharray: none; stroke-linecap: butt; stroke-dashoffset: 0; stroke-linejoin: miter; stroke-miterlimit: 4; is-custom-font: none; font-file-url: none; fill: none; fill-rule: nonzero; opacity: 1;" vector-effect="non-scaling-stroke" transform=" translate(-62.855, -124.605)" d="M 66.96 130.75 Q 64.79 130.61 64.25 127.75 Q 63.5 123.79 58.75 118.46" stroke-linecap="round"/>
</g>
<g transform="matrix(4.6376 0 0 4.6376 188.6491 416.194)" id="763543">
<path style="stroke: rgb(199,199,144); stroke-width: 2; stroke-dasharray: none; stroke-linecap: butt; stroke-dashoffset: 0; stroke-linejoin: miter; stroke-miterlimit: 4; is-custom-font: none; font-file-url: none; fill: none; fill-rule: nonzero; opacity: 1;" vector-effect="non-scaling-stroke" transform=" translate(-75.02, -124.23)" d="M 76.79 121.75 L 73.25 126.71" stroke-linecap="round"/>
</g>
<g transform="matrix(4.6376 0 0 4.6376 166.667 446.4774)" id="680102">
<path style="stroke: rgb(209,209,146); stroke-width: 2; stroke-dasharray: none; stroke-linecap: butt; stroke-dashoffset: 0; stroke-linejoin: miter; stroke-miterlimit: 4; is-custom-font: none; font-file-url: none; fill: none; fill-rule: nonzero; opacity: 1;" vector-effect="non-scaling-stroke" transform=" translate(-70.28, -130.76)" d="M 73.25 126.71 L 67.31 134.81" stroke-linecap="round"/>
</g>
<g transform="matrix(4.6376 0 0 4.6376 190.1414 572.3649)" id="709860">
<path style="stroke: rgb(219,219,149); stroke-width: 2; stroke-dasharray: none; stroke-linecap: butt; stroke-dashoffset: 0; stroke-linejoin: miter; stroke-miterlimit: 4; is-custom-font: none; font-file-url: none; fill: none; fill-rule: nonzero; opacity: 1;" vector-effect="non-scaling-stroke" transform=" translate(-75.3417, -157.905)" d="M 67.31 134.81 Q 64.38 138.27 62.22 142.56 A 0.87 0.83 41.6 0 0 62.29 143.42 Q 74.87 161.75 88.14 179.6 Q 88.61 180.24 88.46 181" stroke-linecap="round"/>
</g>
<g transform="matrix(4.6376 0 0 4.6376 179.7452 593.7439)" id="662772">
<path style="stroke: rgb(232,233,152); stroke-width: 2; stroke-dasharray: none; stroke-linecap: butt; stroke-dashoffset: 0; stroke-linejoin: miter; stroke-miterlimit: 4; is-custom-font: none; font-file-url: none; fill: none; fill-rule: nonzero; opacity: 1;" vector-effect="non-scaling-stroke" transform=" translate(-73.1, -162.515)" d="M 87.25 180.96 Q 85.47 180.46 84.47 179.04 Q 72.01 161.38 58.95 144.07" stroke-linecap="round"/>
</g>
<g transform="matrix(4.6376 0 0 4.6376 92.2108 508.7135)" id="659916">
<path style="stroke: rgb(240,241,154); stroke-width: 2; stroke-dasharray: none; stroke-linecap: butt; stroke-dashoffset: 0; stroke-linejoin: miter; stroke-miterlimit: 4; is-custom-font: none; font-file-url: none; fill: none; fill-rule: nonzero; opacity: 1;" vector-effect="non-scaling-stroke" transform=" translate(-54.225, -144.18)" d="M 58.95 144.07 L 49.5 144.29" stroke-linecap="round"/>
</g>
<g transform="matrix(4.6376 0 0 4.6376 45.464 507.3919)" id="976054">
<path style="stroke: rgb(249,250,156); stroke-width: 2; stroke-dasharray: none; stroke-linecap: butt; stroke-dashoffset: 0; stroke-linejoin: miter; stroke-miterlimit: 4; is-custom-font: none; font-file-url: none; fill: none; fill-rule: nonzero; opacity: 1;" vector-effect="non-scaling-stroke" transform=" translate(-44.145, -143.895)" d="M 49.5 144.29 L 38.79 143.5" stroke-linecap="round"/>
</g>
<g transform="matrix(4.6376 0 0 4.6376 69.5331 498.3022)" id="998612">
<path style="stroke: rgb(240,241,154); stroke-width: 2; stroke-dasharray: none; stroke-linecap: butt; stroke-dashoffset: 0; stroke-linejoin: miter; stroke-miterlimit: 4; is-custom-font: none; font-file-url: none; fill: none; fill-rule: nonzero; opacity: 1;" vector-effect="non-scaling-stroke" transform=" translate(-49.335, -141.935)" d="M 38.96 142.75 Q 39.24 141.73 40.44 141.72 Q 50.19 141.69 59.71 141.12" stroke-linecap="round"/>
</g>
<g transform="matrix(4.6376 0 0 4.6376 134.459 470.4769)" id="9515">
<path style="stroke: rgb(222,224,150); stroke-width: 2; stroke-dasharray: none; stroke-linecap: butt; stroke-dashoffset: 0; stroke-linejoin: miter; stroke-miterlimit: 4; is-custom-font: none; font-file-url: none; fill: none; fill-rule: nonzero; opacity: 1;" vector-effect="non-scaling-stroke" transform=" translate(-63.335, -135.935)" d="M 66.96 130.75 L 59.71 141.12" stroke-linecap="round"/>
</g>
<g transform="matrix(4.6376 0 0 4.6376 96.2917 461.6887)" id="34010">
<path style="stroke: rgb(208,211,49); stroke-width: 2; stroke-dasharray: none; stroke-linecap: butt; stroke-dashoffset: 0; stroke-linejoin: miter; stroke-miterlimit: 4; is-custom-font: none; font-file-url: none; fill: none; fill-rule: nonzero; opacity: 1;" vector-effect="non-scaling-stroke" transform=" translate(-55.105, -134.04)" d="M 59.71 141.12 L 50.5 126.96" stroke-linecap="round"/>
</g>
<g transform="matrix(4.6376 0 0 4.6376 90.4188 561.3622)" id="495145">
<path style="stroke: rgb(235,237,56); stroke-width: 2; stroke-dasharray: none; stroke-linecap: butt; stroke-dashoffset: 0; stroke-linejoin: miter; stroke-miterlimit: 4; is-custom-font: none; font-file-url: none; fill: none; fill-rule: nonzero; opacity: 1;" vector-effect="non-scaling-stroke" transform=" translate(-53.8386, -155.5326)" d="M 49.5 144.29 Q 48.55 145.58 48.67 146.97 Q 48.75 147.94 49.92 149.23 Q 53.37 153.03 55.63 157.61 Q 55.7 157.74 57.73 161.15 Q 59.16 163.55 58.98 166.44 Q 58.95 166.86 58.6 166.58 L 55.27 163.9" stroke-linecap="round"/>
</g>
<g transform="matrix(4.6376 0 0 4.6376 255.2737 523.5313)" id="437814">
<path style="stroke: rgb(134,135,32); stroke-width: 2; stroke-dasharray: none; stroke-linecap: butt; stroke-dashoffset: 0; stroke-linejoin: miter; stroke-miterlimit: 4; is-custom-font: none; font-file-url: none; fill: none; fill-rule: nonzero; opacity: 1;" vector-effect="non-scaling-stroke" transform=" translate(-89.3862, -147.375)" d="M 101.79 173 Q 102.2 168.05 99.25 163.25 Q 94.34 155.25 89.17 144.1 Q 88.01 141.6 86.62 139.48 Q 85.16 137.27 83.69 135.06 Q 82.03 132.57 81.74 130.57 Q 81.66 130.03 81.39 129.67 Q 78.65 125.96 76.79 121.75" stroke-linecap="round"/>
</g>
<g transform="matrix(4.6376 0 0 4.6376 199.5705 398.8958)" id="964017">
<path style="stroke: rgb(189,190,142); stroke-width: 2; stroke-dasharray: none; stroke-linecap: butt; stroke-dashoffset: 0; stroke-linejoin: miter; stroke-miterlimit: 4; is-custom-font: none; font-file-url: none; fill: none; fill-rule: nonzero; opacity: 1;" vector-effect="non-scaling-stroke" transform=" translate(-77.375, -120.5)" d="M 76.79 121.75 Q 77.67 120.62 77.96 119.25" stroke-linecap="round"/>
</g>
<g transform="matrix(4.6376 0 0 4.6376 142.8173 587.5527)" id="965560">
<path style="stroke: rgb(218,220,51); stroke-width: 2; stroke-dasharray: none; stroke-linecap: butt; stroke-dashoffset: 0; stroke-linejoin: miter; stroke-miterlimit: 4; is-custom-font: none; font-file-url: none; fill: none; fill-rule: nonzero; opacity: 1;" vector-effect="non-scaling-stroke" transform=" translate(-65.1372, -161.18)" d="M 58.95 144.07 Q 56.05 145.47 57.37 146.96 Q 58.24 147.96 58.56 149.24 Q 59.58 153.33 61.94 156.07 Q 63.58 157.98 64.26 159.5 Q 67.35 166.38 73.09 174.43 Q 73.39 174.85 73.5 175.36 Q 73.95 177.6 72.25 178.29" stroke-linecap="round"/>
</g>
<g transform="matrix(4.6376 0 0 4.6376 240.8221 540.8294)" id="151542">
<path style="stroke: rgb(153,154,36); stroke-width: 2; stroke-dasharray: none; stroke-linecap: butt; stroke-dashoffset: 0; stroke-linejoin: miter; stroke-miterlimit: 4; is-custom-font: none; font-file-url: none; fill: none; fill-rule: nonzero; opacity: 1;" vector-effect="non-scaling-stroke" transform=" translate(-86.27, -151.105)" d="M 99.29 175.5 Q 96.16 169.21 92.74 163.08 Q 89.36 157.04 86.27 150.65 Q 80.33 138.37 73.25 126.71" stroke-linecap="round"/>
</g>
<g transform="matrix(4.6376 0 0 4.6376 208.4054 574.5909)" id="807913">
<path style="stroke: rgb(173,174,41); stroke-width: 2; stroke-dasharray: none; stroke-linecap: butt; stroke-dashoffset: 0; stroke-linejoin: miter; stroke-miterlimit: 4; is-custom-font: none; font-file-url: none; fill: none; fill-rule: nonzero; opacity: 1;" vector-effect="non-scaling-stroke" transform=" translate(-79.28, -158.385)" d="M 91.25 181.96 Q 91.01 180.7 90.27 179.71 Q 90.16 179.57 89.5 179.08 Q 88.87 178.62 89.42 177.87 A 1.16 0.9 -37.8 0 0 89.64 177.01 Q 88.96 174.12 87.46 171.58 Q 85.28 167.87 85.25 167.81 Q 84.13 165.67 82.95 163.58 Q 81.98 161.88 80.95 159.24 Q 79.67 155.98 77.77 153.05 Q 74.95 148.7 74.14 147.18 Q 70.85 140.95 67.31 134.81" stroke-linecap="round"/>
</g>
<g transform="matrix(4.6376 0 0 4.6376 280.1719 492.5059)" id="403473">
<path style="stroke: rgb(112,115,27); stroke-width: 2; stroke-dasharray: none; stroke-linecap: butt; stroke-dashoffset: 0; stroke-linejoin: miter; stroke-miterlimit: 4; is-custom-font: none; font-file-url: none; fill: none; fill-rule: nonzero; opacity: 1;" vector-effect="non-scaling-stroke" transform=" translate(-94.755, -140.685)" d="M 108.51 166.16 Q 97.98 146.12 87.76 125.97 Q 84.87 120.27 81 115.21" stroke-linecap="round"/>
</g>
<g transform="matrix(4.6376 0 0 4.6376 388.8218 485.8508)" id="433200">
<path style="stroke: rgb(50,50,10); stroke-width: 2; stroke-dasharray: none; stroke-linecap: butt; stroke-dashoffset: 0; stroke-linejoin: miter; stroke-miterlimit: 4; is-custom-font: none; font-file-url: none; fill: none; fill-rule: nonzero; opacity: 1;" vector-effect="non-scaling-stroke" transform=" translate(-118.1832, -139.25)" d="M 108.04 119.25 L 108.01 120.94 A 1.45 0.84 34.2 0 0 108.42 121.79 L 126.95 141.57 Q 128.84 143.59 126.86 145.66 Q 121.74 150.99 116.19 156.69 Q 114.83 158.08 115.04 159.25" stroke-linecap="round"/>
</g>
<g transform="matrix(4.6376 0 0 4.6376 308.0669 460.2516)" id="578728">
<path style="stroke: rgb(85,87,20); stroke-width: 2; stroke-dasharray: none; stroke-linecap: butt; stroke-dashoffset: 0; stroke-linejoin: miter; stroke-miterlimit: 4; is-custom-font: none; font-file-url: none; fill: none; fill-rule: nonzero; opacity: 1;" vector-effect="non-scaling-stroke" transform=" translate(-100.77, -133.73)" d="M 114.79 159.5 Q 113.98 159.01 114.34 157.65 A 3.09 3.08 37.3 0 0 114.02 155.3 Q 105.1 139.98 97.51 124.34 Q 96.5 122.25 93.94 118.04 Q 91.94 114.74 90.75 111.5 Q 89.65 108.49 86.75 107.96" stroke-linecap="round"/>
</g>
<g transform="matrix(4.6376 0 0 4.6376 209.2995 334.0721)" id="994447">
<path style="stroke: none; stroke-width: 1; stroke-dasharray: none; stroke-linecap: butt; stroke-dashoffset: 0; stroke-linejoin: miter; stroke-miterlimit: 4; is-custom-font: none; font-file-url: none; fill: rgb(100,103,24); fill-rule: nonzero; opacity: 1;" transform=" translate(-79.4728, -106.5221)" d="M 79.79 113 Q 78.34 109.92 78 108.5 Q 77.7 107.22 76.85 106.58 A 1.73 1.35 15.8 0 1 76.3 105.83 Q 75.33 102.72 72.5 104.71 Q 76.7 99.3 83.57 101.18 Q 87.13 102.15 84.96 105.41 Q 82.41 109.23 79.79 113 Z" stroke-linecap="round"/>
</g>
<g transform="matrix(4.6376 0 0 4.6376 182.2725 358.0259)" id="585012">
<path style="stroke: none; stroke-width: 1; stroke-dasharray: none; stroke-linecap: butt; stroke-dashoffset: 0; stroke-linejoin: miter; stroke-miterlimit: 4; is-custom-font: none; font-file-url: none; fill: rgb(124,126,30); fill-rule: nonzero; opacity: 1;" transform=" translate(-73.645, -111.6871)" d="M 79.79 113 L 76.96 118.5 Q 75.37 118.62 74.5 120.04 Q 72.56 118.34 71.75 116.25 Q 70.22 112.33 67.5 109.71 L 72.5 104.71 Q 75.33 102.72 76.3 105.83 A 1.73 1.35 15.8 0 0 76.85 106.58 Q 77.7 107.22 78 108.5 Q 78.34 109.92 79.79 113 Z" stroke-linecap="round"/>
</g>
<g transform="matrix(4.6376 0 0 4.6376 339.5247 448.0147)" id="822960">
<path style="stroke: none; stroke-width: 1; stroke-dasharray: none; stroke-linecap: butt; stroke-dashoffset: 0; stroke-linejoin: miter; stroke-miterlimit: 4; is-custom-font: none; font-file-url: none; fill: rgb(70,71,16); fill-rule: nonzero; opacity: 1;" transform=" translate(-107.5532, -131.0913)" d="M 108.04 119.25 L 108.01 120.94 A 1.45 0.84 34.2 0 0 108.42 121.79 L 126.95 141.57 Q 128.84 143.59 126.86 145.66 Q 121.74 150.99 116.19 156.69 Q 114.83 158.08 115.04 159.25 Q 115 159.46 114.79 159.5 Q 113.98 159.01 114.34 157.65 A 3.09 3.08 37.3 0 0 114.02 155.3 Q 105.1 139.98 97.51 124.34 Q 96.5 122.25 93.94 118.04 Q 91.94 114.74 90.75 111.5 Q 89.65 108.49 86.75 107.96 Q 90.11 101.14 95.75 106.75 Q 105.74 116.68 108.04 119.25 Z" stroke-linecap="round"/>
</g>
<g transform="matrix(4.6376 0 0 4.6376 294.734 475.6948)" id="497094">
<path style="stroke: none; stroke-width: 1; stroke-dasharray: none; stroke-linecap: butt; stroke-dashoffset: 0; stroke-linejoin: miter; stroke-miterlimit: 4; is-custom-font: none; font-file-url: none; fill: rgb(100,103,24); fill-rule: nonzero; opacity: 1;" transform=" translate(-97.895, -137.06)" d="M 114.79 159.5 L 108.51 166.16 Q 97.98 146.12 87.76 125.97 Q 84.87 120.27 81 115.21 L 86.75 107.96 Q 89.65 108.49 90.75 111.5 Q 91.94 114.74 93.94 118.04 Q 96.5 122.25 97.51 124.34 Q 105.1 139.98 114.02 155.3 A 3.09 3.08 37.3 0 1 114.34 157.65 Q 113.98 159.01 114.79 159.5 Z" stroke-linecap="round"/>
</g>
<g transform="matrix(4.6376 0 0 4.6376 149.7167 397.644)" id="936587">
<path style="stroke: none; stroke-width: 1; stroke-dasharray: none; stroke-linecap: butt; stroke-dashoffset: 0; stroke-linejoin: miter; stroke-miterlimit: 4; is-custom-font: none; font-file-url: none; fill: rgb(163,164,38); fill-rule: nonzero; opacity: 1;" transform=" translate(-66.625, -120.23)" d="M 67.5 109.71 Q 70.22 112.33 71.75 116.25 Q 72.56 118.34 74.5 120.04 L 66.96 130.75 Q 64.79 130.61 64.25 127.75 Q 63.5 123.79 58.75 118.46 L 67.5 109.71 Z" stroke-linecap="round"/>
</g>
<g transform="matrix(4.6376 0 0 4.6376 270.4098 508.3665)" id="839871">
<path style="stroke: none; stroke-width: 1; stroke-dasharray: none; stroke-linecap: butt; stroke-dashoffset: 0; stroke-linejoin: miter; stroke-miterlimit: 4; is-custom-font: none; font-file-url: none; fill: rgb(124,126,30); fill-rule: nonzero; opacity: 1;" transform=" translate(-92.65, -144.105)" d="M 81 115.21 Q 84.87 120.27 87.76 125.97 Q 97.98 146.12 108.51 166.16 L 101.79 173 Q 102.2 168.05 99.25 163.25 Q 94.34 155.25 89.17 144.1 Q 88.01 141.6 86.62 139.48 Q 85.16 137.27 83.69 135.06 Q 82.03 132.57 81.74 130.57 Q 81.66 130.03 81.39 129.67 Q 78.65 125.96 76.79 121.75 Q 77.67 120.62 77.96 119.25 L 81 115.21 Z" stroke-linecap="round"/>
</g>
<g transform="matrix(4.6376 0 0 4.6376 113.1031 441.9791)" id="893490">
<path style="stroke: none; stroke-width: 1; stroke-dasharray: none; stroke-linecap: butt; stroke-dashoffset: 0; stroke-linejoin: miter; stroke-miterlimit: 4; is-custom-font: none; font-file-url: none; fill: rgb(190,193,45); fill-rule: nonzero; opacity: 1;" transform=" translate(-58.73, -129.79)" d="M 58.75 118.46 Q 63.5 123.79 64.25 127.75 Q 64.79 130.61 66.96 130.75 L 59.71 141.12 L 50.5 126.96 L 58.75 118.46 Z" stroke-linecap="round"/>
</g>
<g transform="matrix(4.6376 0 0 4.6376 136.0103 534.5457)" id="534241">
<path style="stroke: none; stroke-width: 1; stroke-dasharray: none; stroke-linecap: butt; stroke-dashoffset: 0; stroke-linejoin: miter; stroke-miterlimit: 4; is-custom-font: none; font-file-url: none; fill: rgb(254,254,254); fill-rule: nonzero; opacity: 1;" transform=" translate(-63.6694, -149.75)" d="M 76.96 118.5 Q 77.26 119.15 77.96 119.25 Q 77.67 120.62 76.79 121.75 L 73.25 126.71 L 67.31 134.81 Q 64.38 138.27 62.22 142.56 A 0.87 0.83 41.6 0 0 62.29 143.42 Q 74.87 161.75 88.14 179.6 Q 88.61 180.24 88.46 181 L 87.25 180.96 Q 85.47 180.46 84.47 179.04 Q 72.01 161.38 58.95 144.07 L 49.5 144.29 L 38.79 143.5 Q 39 143.14 38.96 142.75 Q 39.24 141.73 40.44 141.72 Q 50.19 141.69 59.71 141.12 L 66.96 130.75 L 74.5 120.04 Q 75.37 118.62 76.96 118.5 Z" stroke-linecap="round"/>
</g>
<g transform="matrix(4.6376 0 0 4.6376 395.5749 485.8508)" id="293597">
<path style="stroke: none; stroke-width: 1; stroke-dasharray: none; stroke-linecap: butt; stroke-dashoffset: 0; stroke-linejoin: miter; stroke-miterlimit: 4; is-custom-font: none; font-file-url: none; fill: rgb(29,28,3); fill-rule: nonzero; opacity: 1;" transform=" translate(-119.6393, -139.25)" d="M 108.04 119.25 L 130.93 141.69 A 1.16 1.14 -45.2 0 1 130.92 143.33 L 115.04 159.25 Q 114.83 158.08 116.19 156.69 Q 121.74 150.99 126.86 145.66 Q 128.84 143.59 126.95 141.57 L 108.42 121.79 A 1.45 0.84 34.2 0 1 108.01 120.94 L 108.04 119.25 Z" stroke-linecap="round"/>
</g>
<g transform="matrix(4.6376 0 0 4.6376 247.0653 529.3283)" id="198419">
<path style="stroke: none; stroke-width: 1; stroke-dasharray: none; stroke-linecap: butt; stroke-dashoffset: 0; stroke-linejoin: miter; stroke-miterlimit: 4; is-custom-font: none; font-file-url: none; fill: rgb(143,144,34); fill-rule: nonzero; opacity: 1;" transform=" translate(-87.6162, -148.625)" d="M 76.79 121.75 Q 78.65 125.96 81.39 129.67 Q 81.66 130.03 81.74 130.57 Q 82.03 132.57 83.69 135.06 Q 85.16 137.27 86.62 139.48 Q 88.01 141.6 89.17 144.1 Q 94.34 155.25 99.25 163.25 Q 102.2 168.05 101.79 173 L 99.29 175.5 Q 96.16 169.21 92.74 163.08 Q 89.36 157.04 86.27 150.65 Q 80.33 138.37 73.25 126.71 L 76.79 121.75 Z" stroke-linecap="round"/>
</g>
<g transform="matrix(4.6376 0 0 4.6376 227.0485 555.8088)" id="237501">
<path style="stroke: none; stroke-width: 1; stroke-dasharray: none; stroke-linecap: butt; stroke-dashoffset: 0; stroke-linejoin: miter; stroke-miterlimit: 4; is-custom-font: none; font-file-url: none; fill: rgb(163,164,38); fill-rule: nonzero; opacity: 1;" transform=" translate(-83.3, -154.335)" d="M 73.25 126.71 Q 80.33 138.37 86.27 150.65 Q 89.36 157.04 92.74 163.08 Q 96.16 169.21 99.29 175.5 Q 95.88 179.49 91.25 181.96 Q 91.01 180.7 90.27 179.71 Q 90.16 179.57 89.5 179.08 Q 88.87 178.62 89.42 177.87 A 1.16 0.9 -37.8 0 0 89.64 177.01 Q 88.96 174.12 87.46 171.58 Q 85.28 167.87 85.25 167.81 Q 84.13 165.67 82.95 163.58 Q 81.98 161.88 80.95 159.24 Q 79.67 155.98 77.77 153.05 Q 74.95 148.7 74.14 147.18 Q 70.85 140.95 67.31 134.81 L 73.25 126.71 Z" stroke-linecap="round"/>
</g>
<g transform="matrix(4.6376 0 0 4.6376 68.4911 465.4684)" id="833481">
<path style="stroke: none; stroke-width: 1; stroke-dasharray: none; stroke-linecap: butt; stroke-dashoffset: 0; stroke-linejoin: miter; stroke-miterlimit: 4; is-custom-font: none; font-file-url: none; fill: rgb(225,228,53); fill-rule: nonzero; opacity: 1;" transform=" translate(-49.1103, -134.855)" d="M 50.5 126.96 L 59.71 141.12 Q 50.19 141.69 40.44 141.72 Q 39.24 141.73 38.96 142.75 Q 38.47 141.59 38.55 140.4 Q 38.61 139.4 39.52 138.38 Q 44.81 132.47 50.5 126.96 Z" stroke-linecap="round"/>
</g>
<g transform="matrix(3.6092 -2.9122 2.9122 3.6092 763.7548 443.0453)" id="971471">
<ellipse style="stroke: none; stroke-width: 1; stroke-dasharray: none; stroke-linecap: butt; stroke-dashoffset: 0; stroke-linejoin: miter; stroke-miterlimit: 4; is-custom-font: none; font-file-url: none; fill: rgb(163,164,38); fill-rule: nonzero; opacity: 1;" cx="0" cy="0" rx="1.93" ry="1.66"/>
</g>
<g transform="matrix(4.6376 0 0 4.6376 196.4051 574.7127)" id="464617">
<path style="stroke: none; stroke-width: 1; stroke-dasharray: none; stroke-linecap: butt; stroke-dashoffset: 0; stroke-linejoin: miter; stroke-miterlimit: 4; is-custom-font: none; font-file-url: none; fill: rgb(183,184,44); fill-rule: nonzero; opacity: 1;" transform=" translate(-76.6923, -158.4112)" d="M 67.31 134.81 Q 70.85 140.95 74.14 147.18 Q 74.95 148.7 77.77 153.05 Q 79.67 155.98 80.95 159.24 Q 81.98 161.88 82.95 163.58 Q 84.13 165.67 85.25 167.81 Q 85.28 167.87 87.46 171.58 Q 88.96 174.12 89.64 177.01 A 1.16 0.9 -37.8 0 1 89.42 177.87 Q 88.87 178.62 89.5 179.08 Q 90.16 179.57 90.27 179.71 Q 91.01 180.7 91.25 181.96 Q 89.66 182.08 88.46 181 Q 88.61 180.24 88.14 179.6 Q 74.87 161.75 62.29 143.42 A 0.87 0.83 41.6 0 1 62.22 142.56 Q 64.38 138.27 67.31 134.81 Z" stroke-linecap="round"/>
</g>
<g transform="matrix(4.6376 0 0 4.6376 566.0165 539.9006)" id="244856">
<path style="stroke: none; stroke-width: 1; stroke-dasharray: none; stroke-linecap: butt; stroke-dashoffset: 0; stroke-linejoin: miter; stroke-miterlimit: 4; is-custom-font: none; font-file-url: none; fill: rgb(178,180,17); fill-rule: nonzero; opacity: 1;" transform=" translate(-156.3917, -150.9048)" d="M 159.47 157.14 A 0.99 0.99 -23.1 0 0 158.25 156.65 Q 153.91 158.2 150.87 156.61 Q 148.17 155.2 147.29 151.24 Q 146.52 147.83 147.14 144.39 Q 147.91 140.12 150.22 138.41 Q 153.09 136.26 157.97 138.01 A 2.5 2.49 -52.6 0 0 160.27 137.7 Q 161.71 136.69 162.92 137.88 A 1.33 1.01 -73.3 0 1 163.25 138.76 L 163.31 161.25 A 1.67 1.66 14.8 0 0 164.16 162.7 Q 166.01 163.75 166.09 164.48 A 0.65 0.42 -2.1 0 1 165.43 164.94 Q 161.87 165 158.31 165.06 Q 157.4 165.08 157.16 164.56 A 0.7 0.52 -29.6 0 1 157.49 163.81 Q 161.5 161.28 159.47 157.14 Z M 158.34 140.56 Q 155.68 139.28 153.66 139.94 Q 151.87 140.52 150.8 142.98 Q 149.05 146.99 150.46 151.05 Q 151.44 153.86 153.8 154.78 Q 156.99 156.03 159.4 152.84 A 1.57 1.47 65.7 0 0 159.71 151.94 L 159.93 143.12 Q 159.98 141.35 158.34 140.56 Z" stroke-linecap="round"/>
</g>
<g transform="matrix(4.6376 0 0 4.6376 764.9246 522.6056)" id="2373">
<path style="stroke: none; stroke-width: 1; stroke-dasharray: none; stroke-linecap: butt; stroke-dashoffset: 0; stroke-linejoin: miter; stroke-miterlimit: 4; is-custom-font: none; font-file-url: none; fill: rgb(178,180,17); fill-rule: nonzero; opacity: 1;" transform=" translate(-199.2823, -147.1755)" d="M 196.44 154.49 A 2.06 1.88 75.9 0 0 197.35 152.8 L 197.41 141.51 A 1.09 1.04 -80.3 0 0 196.72 140.48 Q 195.11 139.92 194.73 139.19 A 1.11 1.11 70 0 1 195.47 137.6 Q 199.75 136.62 200.46 138.79 Q 200.49 138.89 200.54 142.73 Q 200.6 147.68 200.33 151.77 A 2.98 2.98 21 0 0 201.46 154.3 Q 205.48 157.44 201.25 157.36 Q 198.27 157.3 195.29 157.2 Q 194.68 157.18 194.42 156.9 Q 193.97 156.41 194.75 155.75 Q 195.78 154.89 196.44 154.49 Z" stroke-linecap="round"/>
</g>
<g transform="matrix(4.6376 0 0 4.6376 843.703 522.8636)" id="377611">
<path style="stroke: none; stroke-width: 1; stroke-dasharray: none; stroke-linecap: butt; stroke-dashoffset: 0; stroke-linejoin: miter; stroke-miterlimit: 4; is-custom-font: none; font-file-url: none; fill: rgb(178,180,17); fill-rule: nonzero; opacity: 1;" transform=" translate(-216.2692, -147.2311)" d="M 215.09 154.73 L 219.69 154.71 A 1.07 0.81 12 0 0 220.53 154.32 L 221.56 152.71 A 1.38 0.3 -60.7 0 1 222.19 152 Q 223.93 151.24 224.55 154.78 Q 224.9 156.81 222.99 156.86 L 210.61 157.24 Q 207.16 157.34 209.19 154.48 L 218.36 141.61 A 1.22 1.18 -63.8 0 0 217.76 139.75 Q 215.19 139 212.97 140.07 Q 212.13 140.48 211.33 141.71 Q 208.82 145.55 208.74 139.04 Q 208.72 137.15 210.65 137.21 L 221.63 137.5 Q 224.6 137.58 223.05 140.06 Q 219.2 146.2 214.05 152.33 Q 212.02 154.74 215.09 154.73 Z" stroke-linecap="round"/>
</g>
<g transform="matrix(4.6376 0 0 4.6376 669.6723 524.7584)" id="313469">
<path style="stroke: none; stroke-width: 1; stroke-dasharray: none; stroke-linecap: butt; stroke-dashoffset: 0; stroke-linejoin: miter; stroke-miterlimit: 4; is-custom-font: none; font-file-url: none; fill: rgb(178,180,17); fill-rule: nonzero; opacity: 1;" transform=" translate(-178.743, -147.6397)" d="M 186.42 137.46 A 1.08 1.06 -84 0 1 187.26 138.51 L 187.31 152.45 Q 187.31 152.9 187.57 153.36 L 189.26 156.31 A 0.53 0.51 59.5 0 1 189.09 157.03 Q 187.19 158.16 184.98 156.67 Q 183.46 155.66 181.84 156.49 Q 176.41 159.27 173.29 155.75 Q 171.6 153.84 171.09 149.66 Q 170.54 145.09 171 143 Q 171.55 140.5 169.33 139.25 Q 167.73 138.35 169.48 137.81 Q 174.67 136.22 174.46 139.74 Q 174.31 142.21 174.31 142.28 Q 174.42 144.95 174.36 147.62 Q 174.26 151.4 174.95 152.78 Q 176.45 155.84 180.75 154.75 Q 183.9 153.95 183.95 150.25 Q 184 146 184 142.58 A 3.08 3.04 22 0 0 183.04 140.36 Q 181.77 139.16 181.57 138.32 A 0.66 0.54 -15.4 0 1 182.04 137.65 Q 184.14 136.97 186.42 137.46 Z" stroke-linecap="round"/>
</g>
<g transform="matrix(4.6376 0 0 4.6376 946.0231 542.6928)" id="606243">
<path style="stroke: none; stroke-width: 1; stroke-dasharray: none; stroke-linecap: butt; stroke-dashoffset: 0; stroke-linejoin: miter; stroke-miterlimit: 4; is-custom-font: none; font-file-url: none; fill: rgb(178,180,17); fill-rule: nonzero; opacity: 1;" transform=" translate(-238.3325, -151.5069)" d="M 238.56 150.75 Q 240 150.79 240.32 149.16 Q 241.08 145.37 242.47 142.04 A 2.22 2.2 -56.3 0 0 242 139.63 Q 239.86 137.47 242.48 137.27 Q 244.61 137.11 246.75 137.27 Q 248.25 137.37 248.14 138.46 Q 248.09 138.99 247.37 139.69 Q 245.96 141.08 245.45 142.96 Q 244.68 145.77 244.66 145.83 Q 242.42 151.74 240.16 157.64 Q 240.15 157.68 239.54 159.51 Q 238.49 162.69 235.73 164.7 Q 233.42 166.39 231.93 164.83 A 1.2 1.2 58.1 0 1 232.38 162.88 Q 236.15 161.5 236.9 158.35 Q 237.35 156.41 235.81 152.88 Q 233.8 148.28 232.23 143.51 Q 231.35 140.84 229.24 138.87 Q 228.18 137.88 229.58 137.53 Q 231.67 137.01 234.5 137.04 Q 237.51 137.07 235.37 139.66 A 2.5 2.43 55.4 0 0 234.96 142.07 L 237.9 150.22 A 0.82 0.7 79.3 0 0 238.56 150.75 Z" stroke-linecap="round"/>
</g>
<g transform="matrix(4.6376 0 0 4.6376 66.4013 559.5304)" id="843268">
<path style="stroke: none; stroke-width: 1; stroke-dasharray: none; stroke-linecap: butt; stroke-dashoffset: 0; stroke-linejoin: miter; stroke-miterlimit: 4; is-custom-font: none; font-file-url: none; fill: rgb(244,246,58); fill-rule: nonzero; opacity: 1;" transform=" translate(-48.6597, -155.1376)" d="M 38.79 143.5 L 49.5 144.29 Q 48.55 145.58 48.67 146.97 Q 48.75 147.94 49.92 149.23 Q 53.37 153.03 55.63 157.61 Q 55.7 157.74 57.73 161.15 Q 59.16 163.55 58.98 166.44 Q 58.95 166.86 58.6 166.58 L 55.27 163.9 Q 45.66 154.99 39.06 146.69 Q 38.04 145.39 38.79 143.5 Z" stroke-linecap="round"/>
</g>
<g transform="matrix(4.6376 0 0 4.6376 124.4863 587.5527)" id="61825">
<path style="stroke: none; stroke-width: 1; stroke-dasharray: none; stroke-linecap: butt; stroke-dashoffset: 0; stroke-linejoin: miter; stroke-miterlimit: 4; is-custom-font: none; font-file-url: none; fill: rgb(225,228,53); fill-rule: nonzero; opacity: 1;" transform=" translate(-61.1846, -161.18)" d="M 49.5 144.29 L 58.95 144.07 Q 56.05 145.47 57.37 146.96 Q 58.24 147.96 58.56 149.24 Q 59.58 153.33 61.94 156.07 Q 63.58 157.98 64.26 159.5 Q 67.35 166.38 73.09 174.43 Q 73.39 174.85 73.5 175.36 Q 73.95 177.6 72.25 178.29 Q 67.88 176.23 63.31 171.94 Q 57.58 166.56 55.27 163.9 L 58.6 166.58 Q 58.95 166.86 58.98 166.44 Q 59.16 163.55 57.73 161.15 Q 55.7 157.74 55.63 157.61 Q 53.37 153.03 49.92 149.23 Q 48.75 147.94 48.67 146.97 Q 48.55 145.58 49.5 144.29 Z" stroke-linecap="round"/>
</g>
<g transform="matrix(4.6376 0 0 4.6376 174.1123 596.5276)" id="439419">
<path style="stroke: none; stroke-width: 1; stroke-dasharray: none; stroke-linecap: butt; stroke-dashoffset: 0; stroke-linejoin: miter; stroke-miterlimit: 4; is-custom-font: none; font-file-url: none; fill: rgb(210,212,49); fill-rule: nonzero; opacity: 1;" transform=" translate(-71.8853, -163.1152)" d="M 58.95 144.07 Q 72.01 161.38 84.47 179.04 Q 85.47 180.46 87.25 180.96 Q 84.3 182.52 80.06 181.19 Q 76.08 179.93 72.25 178.29 Q 73.95 177.6 73.5 175.36 Q 73.39 174.85 73.09 174.43 Q 67.35 166.38 64.26 159.5 Q 63.58 157.98 61.94 156.07 Q 59.58 153.33 58.56 149.24 Q 58.24 147.96 57.37 146.96 Q 56.05 145.47 58.95 144.07 Z" stroke-linecap="round"/>
</g>
</svg>