<?xml version="1.0" encoding="UTF-8"?>
<svg xmlns="http://www.w3.org/2000/svg" xmlns:xlink="http://www.w3.org/1999/xlink" width="230px" height="40px" viewBox="0 0 230 40" version="1.1">
<g id="surface1">
<path style=" stroke:none;fill-rule:nonzero;fill:rgb(70.588235%,61.176471%,6.666667%);fill-opacity:0.972549;" d="M 81.878906 30.542969 L 81.496094 30.867188 C 81.304688 31.027344 81.207031 31.011719 81.199219 30.8125 L 80.902344 23.570312 L 80.816406 0.519531 C 80.902344 0.191406 81.101562 0.046875 81.414062 0.0976562 C 81.671875 0.136719 81.855469 0.328125 81.855469 0.558594 Z M 81.878906 30.542969 "/>
<path style=" stroke:none;fill-rule:nonzero;fill:rgb(100%,78.431373%,0%);fill-opacity:1;" d="M 15.933594 6.757812 C 15.792969 6.730469 15.683594 6.664062 15.648438 6.582031 C 15.609375 6.5 15.648438 6.410156 15.75 6.351562 C 19.527344 4.050781 24.339844 2.636719 30.1875 2.117188 C 39.8125 1.257812 48.003906 2.726562 54.753906 6.519531 C 54.839844 6.570312 54.878906 6.640625 54.855469 6.707031 C 54.832031 6.773438 54.75 6.828125 54.640625 6.851562 C 52.453125 7.316406 50.585938 7.28125 49.039062 6.738281 C 40.417969 3.722656 31.890625 3.445312 23.453125 5.90625 C 23.394531 5.921875 22.851562 6.128906 21.820312 6.527344 C 20.292969 7.113281 18.328125 7.1875 15.933594 6.757812 Z M 15.933594 6.757812 "/>
<path style=" stroke:none;fill-rule:nonzero;fill:rgb(100%,78.431373%,0%);fill-opacity:1;" d="M 112.628906 31.097656 C 109.933594 31.394531 107.28125 31.414062 104.664062 31.152344 C 102.117188 30.890625 100.148438 30.304688 98.753906 29.386719 C 97.15625 28.332031 96.320312 27.050781 96.242188 25.539062 C 96 20.960938 97.738281 16.648438 101.449219 12.601562 C 102.976562 10.933594 105.101562 9.566406 107.824219 8.503906 C 109.761719 7.75 111.914062 7.421875 114.285156 7.519531 C 116.164062 7.601562 116.378906 7.996094 114.921875 8.710938 C 114.179688 9.078125 113.550781 9.503906 113.042969 9.988281 C 108.332031 14.46875 105.8125 19.535156 105.480469 25.183594 C 105.46875 25.359375 105.605469 25.53125 105.847656 25.640625 C 106.089844 25.75 106.410156 25.792969 106.710938 25.746094 C 108.902344 25.425781 111.339844 25.601562 114.019531 26.269531 C 114.308594 26.339844 114.644531 26.28125 114.8125 26.128906 C 120.394531 21.046875 122.550781 15.613281 121.285156 9.832031 C 121.023438 8.652344 120.386719 7.792969 119.375 7.261719 C 118.082031 6.574219 116.402344 6.234375 114.335938 6.242188 C 111.269531 6.253906 108.339844 6.636719 105.554688 7.386719 C 99.234375 9.09375 96.125 11.960938 96.230469 15.988281 C 96.230469 16.167969 96.324219 16.355469 96.503906 16.546875 C 97.226562 17.324219 96.703125 17.5625 94.9375 17.261719 C 94.023438 17.109375 93.136719 16.914062 92.273438 16.683594 C 91.957031 16.601562 91.695312 16.464844 91.53125 16.292969 C 89.890625 14.578125 90.046875 12.863281 91.996094 11.152344 C 94.953125 8.570312 98.972656 6.746094 104.058594 5.675781 C 110.714844 4.28125 116.769531 4.128906 122.230469 5.222656 C 125.820312 5.941406 128.15625 7.289062 129.230469 9.265625 C 129.875 10.445312 130.160156 12.207031 130.089844 14.554688 C 129.933594 20.234375 126.289062 25.136719 119.152344 29.269531 C 118.929688 29.398438 118.894531 29.59375 119.066406 29.742188 C 120.660156 31.105469 123.242188 31.96875 126.820312 32.328125 C 126.972656 32.339844 127.101562 32.394531 127.175781 32.472656 C 127.246094 32.554688 127.25 32.648438 127.183594 32.726562 C 125.945312 34.191406 124.167969 35.003906 121.847656 35.167969 C 119.804688 35.3125 117.9375 34.988281 116.246094 34.195312 C 114.742188 33.492188 113.742188 32.539062 113.253906 31.332031 C 113.191406 31.171875 112.914062 31.066406 112.628906 31.097656 Z M 108.640625 28.445312 C 109.46875 28.574219 110.210938 28.515625 110.867188 28.269531 C 110.988281 28.226562 111.070312 28.152344 111.085938 28.070312 C 111.105469 27.988281 111.0625 27.902344 110.964844 27.839844 C 109.875 27.117188 108.515625 26.886719 106.890625 27.152344 C 106.757812 27.175781 106.644531 27.230469 106.585938 27.300781 C 106.53125 27.371094 106.53125 27.453125 106.59375 27.523438 C 107.019531 27.988281 107.699219 28.296875 108.640625 28.445312 Z M 108.640625 28.445312 "/>
<path style=" stroke:none;fill-rule:nonzero;fill:rgb(100%,78.431373%,0%);fill-opacity:1;" d="M 177.375 8.671875 C 177.375 9.457031 176.890625 10.128906 175.921875 10.683594 C 174.949219 11.238281 173.777344 11.519531 172.402344 11.519531 C 171.027344 11.519531 169.855469 11.238281 168.882812 10.683594 C 167.914062 10.128906 167.425781 9.457031 167.425781 8.671875 C 167.425781 7.886719 167.914062 7.214844 168.882812 6.660156 C 169.855469 6.105469 171.027344 5.828125 172.402344 5.828125 C 173.777344 5.828125 174.949219 6.105469 175.921875 6.660156 C 176.890625 7.214844 177.375 7.886719 177.375 8.671875 C 177.375 8.707031 177.375 8.738281 177.375 8.773438 "/>
<path style=" stroke:none;fill-rule:nonzero;fill:rgb(100%,78.431373%,0%);fill-opacity:1;" d="M 4.910156 24.242188 C 2.183594 23.03125 0.613281 21.4375 0.203125 19.464844 C -0.796875 14.6875 1.917969 11.53125 8.335938 9.988281 C 11.910156 9.128906 15.394531 9.007812 18.796875 9.632812 C 21.300781 10.089844 23.457031 10.882812 25.265625 12.015625 C 26.878906 13.027344 27.96875 14.292969 28.535156 15.8125 C 29.957031 19.632812 27.964844 22.558594 22.5625 24.589844 C 19.746094 25.648438 16.867188 26.164062 13.917969 26.136719 C 10.6875 26.101562 7.683594 25.472656 4.910156 24.242188 Z M 11.507812 18.074219 L 10.085938 17.308594 C 9.804688 17.15625 9.492188 17.0625 9.195312 17.035156 C 6.175781 16.785156 5.597656 17.441406 7.457031 19.003906 C 8.59375 19.960938 10.070312 20.671875 11.878906 21.136719 C 12.179688 21.214844 12.539062 21.191406 12.8125 21.078125 C 15.378906 19.980469 17.761719 18.765625 19.953125 17.429688 C 20.671875 16.992188 21.144531 16.558594 21.363281 16.140625 C 21.9375 15.046875 21.082031 14.621094 18.796875 14.867188 C 18.5 14.894531 18.183594 14.992188 17.894531 15.144531 L 12.324219 18.066406 C 12.089844 18.191406 11.734375 18.195312 11.507812 18.074219 Z M 11.507812 18.074219 "/>
<path style=" stroke:none;fill-rule:nonzero;fill:rgb(100%,78.431373%,0%);fill-opacity:1;" d="M 70.667969 17.660156 C 70.667969 19.902344 69.109375 22.054688 66.335938 23.640625 C 63.5625 25.226562 59.800781 26.117188 55.878906 26.117188 C 51.957031 26.117188 48.195312 25.226562 45.421875 23.640625 C 42.652344 22.054688 41.09375 19.902344 41.09375 17.660156 C 41.09375 15.417969 42.652344 13.269531 45.421875 11.683594 C 48.195312 10.097656 51.957031 9.207031 55.878906 9.207031 C 59.800781 9.207031 63.5625 10.097656 66.335938 11.683594 C 69.109375 13.269531 70.667969 15.417969 70.667969 17.660156 Z M 56.464844 15.503906 C 56.03125 15.652344 55.488281 15.652344 55.050781 15.503906 L 51.902344 14.433594 C 51.363281 14.257812 50.679688 14.3125 50.246094 14.566406 C 49.808594 14.820312 49.726562 15.207031 50.046875 15.515625 L 51.953125 17.296875 C 52.21875 17.542969 52.222656 17.855469 51.964844 18.105469 L 50.097656 19.90625 C 49.785156 20.214844 49.875 20.601562 50.316406 20.855469 C 50.757812 21.105469 51.441406 21.152344 51.976562 20.972656 L 55.105469 19.875 C 55.539062 19.726562 56.082031 19.726562 56.515625 19.875 L 59.667969 20.941406 C 60.207031 21.121094 60.886719 21.066406 61.324219 20.8125 C 61.761719 20.558594 61.84375 20.167969 61.523438 19.863281 L 59.613281 18.082031 C 59.347656 17.832031 59.34375 17.523438 59.601562 17.273438 L 61.480469 15.472656 C 61.800781 15.164062 61.710938 14.769531 61.265625 14.515625 C 60.820312 14.265625 60.128906 14.21875 59.59375 14.40625 Z M 56.464844 15.503906 "/>
<path style=" stroke:none;fill-rule:nonzero;fill:rgb(100%,78.431373%,0%);fill-opacity:1;" d="M 145.980469 28.554688 C 142.9375 30.921875 138.839844 31.722656 133.683594 30.964844 C 131.929688 30.699219 130.941406 30.054688 130.714844 29.027344 C 130.320312 27.265625 130.46875 25.515625 131.160156 23.777344 C 132.460938 20.488281 133.640625 17.179688 134.703125 13.847656 C 134.785156 13.59375 135.167969 13.410156 135.617188 13.410156 L 143.421875 13.410156 C 143.597656 13.410156 143.765625 13.453125 143.875 13.535156 C 143.984375 13.613281 144.03125 13.714844 143.996094 13.816406 C 142.53125 17.664062 141.117188 21.507812 139.753906 25.339844 C 139.511719 26.019531 139.457031 26.5625 139.59375 26.964844 C 139.945312 28.027344 141.039062 28.25 142.871094 27.640625 C 144.441406 27.121094 145.410156 26.367188 145.777344 25.378906 L 150.074219 13.890625 C 150.175781 13.609375 150.601562 13.410156 151.09375 13.410156 L 158.484375 13.410156 C 158.734375 13.410156 158.96875 13.476562 159.125 13.585938 C 159.28125 13.699219 159.34375 13.84375 159.292969 13.984375 L 154.761719 26.425781 C 154.457031 27.246094 155.046875 27.71875 156.535156 27.84375 C 158.011719 27.972656 159.242188 27.703125 160.222656 27.039062 C 160.796875 26.652344 161.269531 26.011719 161.644531 25.121094 C 163.179688 21.464844 164.585938 17.664062 165.867188 13.71875 C 165.925781 13.539062 166.195312 13.410156 166.515625 13.410156 L 174.203125 13.410156 C 174.46875 13.410156 174.71875 13.480469 174.882812 13.597656 C 175.050781 13.71875 175.113281 13.875 175.054688 14.023438 C 173.460938 18.046875 171.992188 22.03125 170.640625 25.984375 C 170.21875 27.238281 171.46875 27.894531 174.394531 27.953125 C 174.660156 27.957031 174.902344 28.042969 175.03125 28.171875 C 175.164062 28.304688 175.164062 28.464844 175.03125 28.597656 C 172.941406 30.757812 170.070312 31.640625 166.429688 31.25 C 163.96875 30.984375 162.519531 30.277344 162.082031 29.125 C 161.941406 28.757812 161.636719 28.707031 161.167969 28.972656 C 157.808594 30.910156 154.128906 31.613281 150.125 31.078125 C 148.910156 30.917969 148.003906 30.601562 147.410156 30.136719 C 146.84375 29.699219 146.492188 29.1875 146.351562 28.609375 C 146.300781 28.417969 146.175781 28.402344 145.980469 28.554688 Z M 145.980469 28.554688 "/>
<path style=" stroke:none;fill-rule:nonzero;fill:rgb(100%,78.431373%,0%);fill-opacity:1;" d="M 189.796875 15.394531 L 184.652344 15.519531 C 184.472656 15.523438 184.304688 15.582031 184.203125 15.671875 C 184.097656 15.765625 184.070312 15.882812 184.121094 15.992188 C 184.9375 17.707031 183.839844 18.554688 180.835938 18.527344 C 179.292969 18.515625 178.484375 18.070312 178.40625 17.1875 C 178.277344 15.746094 179.242188 14.703125 181.300781 14.058594 C 182.425781 13.707031 184.246094 13.507812 186.765625 13.457031 C 191.53125 13.367188 196.210938 13.359375 200.808594 13.441406 C 200.964844 13.441406 201.109375 13.492188 201.183594 13.570312 C 201.257812 13.648438 201.257812 13.746094 201.179688 13.824219 L 186.816406 28.035156 C 186.46875 28.378906 186.625 28.542969 187.285156 28.53125 L 193.074219 28.445312 C 193.691406 28.433594 193.804688 28.273438 193.414062 27.964844 C 192.757812 27.445312 192.632812 26.953125 193.042969 26.488281 C 193.375 26.109375 193.976562 25.847656 194.847656 25.699219 C 196.238281 25.460938 197.441406 25.644531 198.453125 26.257812 C 198.6875 26.394531 198.824219 26.585938 198.835938 26.796875 C 198.992188 28.398438 198.085938 29.574219 196.121094 30.320312 C 194.945312 30.765625 192.984375 31.019531 190.234375 31.078125 C 185.578125 31.179688 180.886719 31.203125 176.15625 31.152344 C 175.847656 31.144531 175.570312 31.046875 175.421875 30.890625 C 175.269531 30.734375 175.273438 30.542969 175.425781 30.386719 L 190.0625 15.683594 C 190.269531 15.476562 190.179688 15.382812 189.796875 15.394531 Z M 189.796875 15.394531 "/>
<path style=" stroke:none;fill-rule:nonzero;fill:rgb(100%,78.431373%,0%);fill-opacity:1;" d="M 214.789062 29.839844 C 212.574219 30.675781 210.695312 31.148438 209.144531 31.265625 C 204.9375 31.582031 202.308594 30.683594 201.253906 28.574219 C 200.738281 27.546875 200.746094 26.410156 201.277344 25.164062 C 201.820312 23.875 202.097656 23.210938 202.113281 23.167969 C 203.140625 20.035156 204.292969 16.914062 205.582031 13.808594 C 205.65625 13.628906 205.925781 13.5 206.230469 13.496094 L 214.027344 13.433594 C 214.226562 13.433594 214.417969 13.488281 214.546875 13.582031 C 214.671875 13.679688 214.71875 13.804688 214.671875 13.925781 C 213.046875 18.019531 211.566406 21.988281 210.226562 25.839844 C 209.832031 26.972656 210.304688 27.621094 211.648438 27.773438 C 212.53125 27.875 213.417969 27.703125 214.300781 27.257812 C 215.558594 26.617188 216.335938 25.894531 216.636719 25.085938 C 217.964844 21.445312 219.320312 17.734375 220.695312 13.945312 C 220.808594 13.636719 221.273438 13.417969 221.8125 13.417969 L 229.566406 13.441406 C 229.695312 13.441406 229.816406 13.472656 229.898438 13.53125 C 229.980469 13.589844 230.015625 13.667969 229.988281 13.742188 C 227.707031 20.363281 225.261719 26.960938 222.660156 33.542969 C 221.796875 35.703125 220.671875 37.226562 219.285156 38.109375 C 216.960938 39.59375 213.953125 40.164062 210.269531 39.824219 C 207.695312 39.589844 205.820312 38.902344 204.648438 37.761719 C 203.078125 36.242188 203.488281 34.753906 205.878906 33.292969 C 206.664062 32.816406 207.746094 32.378906 209.125 31.988281 C 210.6875 31.542969 211.933594 31.253906 212.859375 31.113281 C 214.082031 30.929688 214.84375 30.546875 215.140625 29.96875 C 215.246094 29.757812 215.128906 29.714844 214.789062 29.839844 Z M 209.433594 36.566406 C 211.554688 36.757812 212.804688 36.0625 213.1875 34.488281 C 213.351562 33.816406 213.566406 33.246094 213.835938 32.78125 C 214.109375 32.289062 213.820312 32.128906 212.964844 32.304688 C 210.808594 32.738281 209.113281 33.511719 207.882812 34.625 C 206.683594 35.722656 207.199219 36.371094 209.433594 36.566406 Z M 209.433594 36.566406 "/>
<path style=" stroke:none;fill-rule:nonzero;fill:rgb(70.588235%,61.176471%,6.666667%);fill-opacity:0.972549;" d="M 80.902344 23.570312 L 81.199219 30.8125 C 81.207031 31.011719 81.304688 31.027344 81.496094 30.867188 L 81.878906 30.542969 L 81.921875 34.632812 C 81.925781 34.875 81.742188 35.078125 81.484375 35.105469 C 81.300781 35.121094 81.136719 35.066406 80.988281 34.9375 C 80.902344 34.855469 80.867188 34.753906 80.882812 34.632812 C 81.015625 33.320312 80.898438 32.007812 80.53125 30.703125 Z M 80.902344 23.570312 "/>
<path style=" stroke:none;fill-rule:nonzero;fill:rgb(100%,78.431373%,0%);fill-opacity:1;" d="M 15.984375 28.960938 C 15.066406 28.480469 15.304688 28.285156 16.695312 28.378906 C 17.027344 28.398438 17.367188 28.382812 17.714844 28.332031 C 19.101562 28.121094 20.328125 28.214844 21.394531 28.609375 C 29.648438 31.703125 38.042969 32 46.578125 29.5 C 46.632812 29.484375 47.21875 29.265625 48.335938 28.847656 C 49.929688 28.238281 51.910156 28.140625 54.277344 28.550781 C 54.398438 28.570312 54.496094 28.625 54.527344 28.695312 C 54.5625 28.765625 54.535156 28.839844 54.449219 28.894531 C 52.765625 29.96875 50.746094 30.839844 48.390625 31.507812 C 36.445312 34.882812 25.644531 34.03125 15.984375 28.960938 Z M 15.984375 28.960938 "/>
</g>
</svg>
