<?xml version="1.0" encoding="UTF-8"?>
<svg xmlns="http://www.w3.org/2000/svg" xmlns:xlink="http://www.w3.org/1999/xlink" width="250px" height="50px" viewBox="0 0 250 50" version="1.1">
<g id="surface1">
<path style=" stroke:none;fill-rule:nonzero;fill:rgb(70.588235%,61.176471%,6.666667%);fill-opacity:0.972549;" d="M 88.996094 38.179688 L 88.582031 38.582031 C 88.375 38.785156 88.269531 38.761719 88.261719 38.515625 L 87.9375 29.460938 L 87.84375 0.652344 C 87.9375 0.238281 88.152344 0.0585938 88.492188 0.121094 C 88.773438 0.171875 88.976562 0.410156 88.976562 0.695312 Z M 88.996094 38.179688 "/>
<path style=" stroke:none;fill-rule:nonzero;fill:rgb(100%,78.431373%,0%);fill-opacity:1;" d="M 17.316406 8.445312 C 17.164062 8.410156 17.046875 8.328125 17.007812 8.226562 C 16.96875 8.125 17.011719 8.015625 17.121094 7.9375 C 21.226562 5.0625 26.457031 3.296875 32.8125 2.644531 C 43.273438 1.574219 52.175781 3.410156 59.515625 8.148438 C 59.609375 8.210938 59.648438 8.300781 59.625 8.382812 C 59.597656 8.46875 59.511719 8.535156 59.390625 8.566406 C 57.015625 9.148438 54.984375 9.101562 53.300781 8.421875 C 43.933594 4.652344 34.664062 4.304688 25.492188 7.382812 C 25.429688 7.402344 24.839844 7.660156 23.71875 8.15625 C 22.054688 8.890625 19.921875 8.988281 17.316406 8.445312 Z M 17.316406 8.445312 "/>
<path style=" stroke:none;fill-rule:nonzero;fill:rgb(100%,78.431373%,0%);fill-opacity:1;" d="M 122.421875 38.871094 C 119.496094 39.246094 116.609375 39.269531 113.765625 38.9375 C 110.996094 38.613281 108.855469 37.878906 107.339844 36.730469 C 105.605469 35.414062 104.695312 33.8125 104.609375 31.925781 C 104.347656 26.199219 106.234375 20.808594 110.269531 15.753906 C 111.929688 13.667969 114.242188 11.957031 117.199219 10.628906 C 119.304688 9.6875 121.648438 9.277344 124.222656 9.402344 C 126.265625 9.503906 126.496094 9.996094 124.914062 10.886719 C 124.105469 11.347656 123.425781 11.878906 122.871094 12.488281 C 117.753906 18.085938 115.011719 24.417969 114.652344 31.480469 C 114.640625 31.699219 114.789062 31.910156 115.054688 32.050781 C 115.316406 32.191406 115.664062 32.238281 115.988281 32.183594 C 118.371094 31.785156 121.019531 32.003906 123.933594 32.835938 C 124.246094 32.925781 124.617188 32.851562 124.796875 32.660156 C 130.863281 26.308594 133.207031 19.515625 131.832031 12.289062 C 131.546875 10.8125 130.855469 9.742188 129.757812 9.074219 C 128.347656 8.214844 126.523438 7.792969 124.277344 7.800781 C 120.941406 7.816406 117.761719 8.292969 114.734375 9.234375 C 107.863281 11.367188 104.484375 14.949219 104.597656 19.984375 C 104.597656 20.210938 104.699219 20.445312 104.898438 20.683594 C 105.683594 21.652344 105.113281 21.949219 103.191406 21.578125 C 102.199219 21.386719 101.234375 21.144531 100.296875 20.855469 C 99.953125 20.753906 99.671875 20.582031 99.488281 20.363281 C 97.707031 18.222656 97.875 16.082031 99.996094 13.941406 C 103.210938 10.710938 107.582031 8.429688 113.105469 7.097656 C 120.339844 5.351562 126.921875 5.164062 132.855469 6.527344 C 136.761719 7.425781 139.296875 9.113281 140.46875 11.582031 C 141.167969 13.054688 141.476562 15.257812 141.402344 18.195312 C 141.234375 25.292969 137.269531 31.421875 129.515625 36.589844 C 129.273438 36.746094 129.234375 36.992188 129.421875 37.179688 C 131.152344 38.882812 133.960938 39.960938 137.851562 40.410156 C 138.015625 40.425781 138.15625 40.496094 138.234375 40.59375 C 138.308594 40.691406 138.3125 40.808594 138.242188 40.910156 C 136.898438 42.738281 134.964844 43.753906 132.441406 43.957031 C 130.222656 44.140625 128.191406 43.734375 126.355469 42.746094 C 124.71875 41.863281 123.632812 40.671875 123.101562 39.167969 C 123.035156 38.964844 122.734375 38.832031 122.421875 38.871094 Z M 118.085938 35.558594 C 118.988281 35.71875 119.792969 35.644531 120.507812 35.339844 C 120.640625 35.28125 120.726562 35.191406 120.746094 35.085938 C 120.765625 34.984375 120.71875 34.878906 120.613281 34.800781 C 119.429688 33.894531 117.953125 33.609375 116.183594 33.941406 C 116.039062 33.96875 115.917969 34.035156 115.855469 34.125 C 115.792969 34.214844 115.796875 34.316406 115.863281 34.40625 C 116.324219 34.988281 117.066406 35.371094 118.085938 35.558594 Z M 118.085938 35.558594 "/>
<path style=" stroke:none;fill-rule:nonzero;fill:rgb(100%,78.431373%,0%);fill-opacity:1;" d="M 192.800781 10.839844 C 192.800781 11.824219 192.273438 12.660156 191.21875 13.355469 C 190.160156 14.050781 188.886719 14.398438 187.394531 14.398438 C 185.898438 14.398438 184.625 14.050781 183.570312 13.355469 C 182.515625 12.660156 181.984375 11.824219 181.984375 10.839844 C 181.984375 9.859375 182.515625 9.019531 183.570312 8.328125 C 184.625 7.632812 185.898438 7.285156 187.394531 7.285156 C 188.886719 7.285156 190.160156 7.632812 191.21875 8.328125 C 192.273438 9.019531 192.800781 9.859375 192.800781 10.839844 C 192.800781 10.882812 192.800781 10.925781 192.796875 10.964844 "/>
<path style=" stroke:none;fill-rule:nonzero;fill:rgb(100%,78.431373%,0%);fill-opacity:1;" d="M 5.339844 30.304688 C 2.371094 28.785156 0.664062 26.796875 0.21875 24.328125 C -0.863281 18.359375 2.082031 14.410156 9.0625 12.488281 C 12.945312 11.410156 16.734375 11.261719 20.429688 12.039062 C 23.152344 12.609375 25.496094 13.605469 27.464844 15.019531 C 29.214844 16.28125 30.398438 17.863281 31.015625 19.765625 C 32.558594 24.542969 30.394531 28.199219 24.523438 30.734375 C 21.464844 32.058594 18.332031 32.703125 15.128906 32.667969 C 11.613281 32.628906 8.351562 31.839844 5.339844 30.304688 Z M 12.507812 22.59375 L 10.964844 21.636719 C 10.660156 21.445312 10.316406 21.324219 9.996094 21.296875 C 6.714844 20.984375 6.082031 21.800781 8.105469 23.753906 C 9.34375 24.949219 10.945312 25.839844 12.914062 26.421875 C 13.242188 26.519531 13.628906 26.488281 13.929688 26.347656 C 16.71875 24.976562 19.304688 23.457031 21.6875 21.789062 C 22.472656 21.238281 22.984375 20.699219 23.222656 20.175781 C 23.84375 18.808594 22.914062 18.277344 20.429688 18.582031 C 20.109375 18.617188 19.765625 18.738281 19.449219 18.929688 L 13.398438 22.585938 C 13.140625 22.738281 12.757812 22.742188 12.507812 22.59375 Z M 12.507812 22.59375 "/>
<path style=" stroke:none;fill-rule:nonzero;fill:rgb(100%,78.431373%,0%);fill-opacity:1;" d="M 76.8125 22.078125 C 76.8125 24.878906 75.117188 27.566406 72.101562 29.550781 C 69.089844 31.53125 65 32.644531 60.738281 32.644531 C 56.476562 32.644531 52.386719 31.53125 49.375 29.550781 C 46.359375 27.566406 44.667969 24.878906 44.667969 22.078125 C 44.667969 19.273438 46.359375 16.585938 49.375 14.605469 C 52.386719 12.621094 56.476562 11.507812 60.738281 11.507812 C 65 11.507812 69.089844 12.621094 72.101562 14.605469 C 75.117188 16.585938 76.8125 19.273438 76.8125 22.078125 Z M 61.371094 19.378906 C 60.902344 19.566406 60.3125 19.566406 59.839844 19.378906 L 56.414062 18.042969 C 55.828125 17.824219 55.089844 17.890625 54.613281 18.207031 C 54.140625 18.523438 54.050781 19.011719 54.398438 19.394531 L 56.472656 21.621094 C 56.761719 21.929688 56.765625 22.320312 56.484375 22.628906 L 54.453125 24.882812 C 54.117188 25.265625 54.210938 25.753906 54.691406 26.066406 C 55.171875 26.382812 55.914062 26.441406 56.496094 26.214844 L 59.898438 24.84375 C 60.367188 24.660156 60.957031 24.660156 61.429688 24.84375 L 64.855469 26.179688 C 65.441406 26.402344 66.183594 26.332031 66.65625 26.015625 C 67.132812 25.699219 67.21875 25.210938 66.871094 24.828125 L 64.796875 22.601562 C 64.511719 22.292969 64.503906 21.902344 64.785156 21.589844 L 66.828125 19.339844 C 67.175781 18.953125 67.078125 18.460938 66.59375 18.144531 C 66.109375 17.832031 65.355469 17.773438 64.773438 18.003906 Z M 61.371094 19.378906 "/>
<path style=" stroke:none;fill-rule:nonzero;fill:rgb(100%,78.431373%,0%);fill-opacity:1;" d="M 158.671875 35.695312 C 155.367188 38.652344 150.914062 39.652344 145.308594 38.703125 C 143.402344 38.375 142.328125 37.570312 142.082031 36.285156 C 141.652344 34.082031 141.8125 31.894531 142.566406 29.71875 C 143.980469 25.609375 145.265625 21.472656 146.417969 17.308594 C 146.503906 16.992188 146.921875 16.761719 147.410156 16.761719 L 155.894531 16.761719 C 156.085938 16.761719 156.265625 16.816406 156.386719 16.917969 C 156.507812 17.015625 156.554688 17.144531 156.515625 17.269531 C 154.925781 22.082031 153.386719 26.882812 151.90625 31.675781 C 151.644531 32.523438 151.585938 33.203125 151.730469 33.707031 C 152.117188 35.03125 153.304688 35.3125 155.292969 34.550781 C 157 33.902344 158.054688 32.960938 158.453125 31.722656 L 163.125 17.363281 C 163.238281 17.011719 163.699219 16.761719 164.230469 16.761719 L 172.265625 16.761719 C 172.535156 16.761719 172.792969 16.84375 172.960938 16.984375 C 173.132812 17.121094 173.199219 17.308594 173.140625 17.480469 L 168.21875 33.03125 C 167.886719 34.058594 168.53125 34.652344 170.144531 34.808594 C 171.75 34.964844 173.089844 34.628906 174.15625 33.800781 C 174.78125 33.3125 175.292969 32.515625 175.703125 31.402344 C 177.371094 26.832031 178.898438 22.082031 180.292969 17.148438 C 180.351562 16.925781 180.648438 16.761719 180.992188 16.761719 L 189.351562 16.761719 C 189.640625 16.761719 189.914062 16.847656 190.09375 16.996094 C 190.269531 17.144531 190.339844 17.339844 190.277344 17.527344 C 188.546875 22.558594 186.949219 27.542969 185.480469 32.480469 C 185.019531 34.046875 186.378906 34.867188 189.5625 34.941406 C 189.847656 34.949219 190.109375 35.050781 190.253906 35.214844 C 190.394531 35.378906 190.394531 35.582031 190.253906 35.746094 C 187.976562 38.445312 184.859375 39.550781 180.902344 39.058594 C 178.226562 38.730469 176.652344 37.847656 176.175781 36.40625 C 176.023438 35.945312 175.691406 35.882812 175.183594 36.214844 C 171.53125 38.636719 167.53125 39.515625 163.179688 38.847656 C 161.859375 38.644531 160.875 38.253906 160.230469 37.671875 C 159.613281 37.121094 159.230469 36.484375 159.078125 35.761719 C 159.023438 35.523438 158.886719 35.503906 158.671875 35.695312 Z M 158.671875 35.695312 "/>
<path style=" stroke:none;fill-rule:nonzero;fill:rgb(100%,78.431373%,0%);fill-opacity:1;" d="M 206.300781 19.242188 L 200.710938 19.402344 C 200.511719 19.40625 200.332031 19.476562 200.21875 19.589844 C 200.109375 19.707031 200.074219 19.855469 200.132812 19.992188 C 201.015625 22.136719 199.828125 23.191406 196.558594 23.160156 C 194.882812 23.144531 194.003906 22.589844 193.917969 21.484375 C 193.78125 19.683594 194.828125 18.378906 197.066406 17.574219 C 198.289062 17.132812 200.269531 16.882812 203.003906 16.824219 C 208.183594 16.707031 213.273438 16.699219 218.269531 16.800781 C 218.441406 16.804688 218.59375 16.867188 218.675781 16.964844 C 218.761719 17.0625 218.757812 17.179688 218.671875 17.277344 L 203.0625 35.042969 C 202.683594 35.472656 202.855469 35.679688 203.570312 35.664062 L 209.863281 35.558594 C 210.53125 35.542969 210.65625 35.34375 210.234375 34.957031 C 209.519531 34.308594 209.386719 33.691406 209.832031 33.109375 C 210.191406 32.636719 210.84375 32.308594 211.789062 32.121094 C 213.304688 31.824219 214.609375 32.058594 215.710938 32.820312 C 215.964844 32.992188 216.109375 33.230469 216.125 33.496094 C 216.292969 35.496094 215.3125 36.964844 213.175781 37.902344 C 211.898438 38.457031 209.765625 38.773438 206.773438 38.847656 C 201.71875 38.972656 196.617188 39.003906 191.476562 38.9375 C 191.140625 38.933594 190.835938 38.808594 190.671875 38.613281 C 190.511719 38.417969 190.511719 38.179688 190.679688 37.984375 L 206.589844 19.605469 C 206.8125 19.347656 206.71875 19.226562 206.300781 19.242188 Z M 206.300781 19.242188 "/>
<path style=" stroke:none;fill-rule:nonzero;fill:rgb(100%,78.431373%,0%);fill-opacity:1;" d="M 233.464844 37.300781 C 231.058594 38.34375 229.015625 38.9375 227.332031 39.082031 C 222.757812 39.476562 219.898438 38.355469 218.753906 35.714844 C 218.191406 34.433594 218.199219 33.011719 218.777344 31.457031 C 219.367188 29.84375 219.671875 29.011719 219.6875 28.960938 C 220.804688 25.042969 222.058594 21.144531 223.457031 17.261719 C 223.542969 17.035156 223.832031 16.871094 224.160156 16.867188 L 232.636719 16.792969 C 232.855469 16.792969 233.0625 16.859375 233.199219 16.980469 C 233.335938 17.097656 233.390625 17.257812 233.339844 17.40625 C 231.570312 22.523438 229.960938 27.484375 228.507812 32.296875 C 228.078125 33.71875 228.59375 34.523438 230.054688 34.714844 C 231.015625 34.84375 231.976562 34.628906 232.9375 34.070312 C 234.304688 33.273438 235.148438 32.367188 235.472656 31.355469 C 236.917969 26.808594 238.390625 22.167969 239.886719 17.429688 C 240.007812 17.046875 240.515625 16.769531 241.097656 16.769531 L 249.527344 16.800781 C 249.667969 16.800781 249.800781 16.84375 249.890625 16.917969 C 249.980469 16.988281 250.015625 17.085938 249.988281 17.179688 C 247.507812 25.453125 244.851562 33.703125 242.023438 41.925781 C 241.085938 44.628906 239.863281 46.535156 238.355469 47.636719 C 235.828125 49.488281 232.558594 50.207031 228.554688 49.78125 C 225.757812 49.488281 223.71875 48.628906 222.445312 47.203125 C 220.738281 45.300781 221.183594 43.441406 223.78125 41.613281 C 224.632812 41.019531 225.8125 40.476562 227.308594 39.984375 C 229.007812 39.429688 230.359375 39.066406 231.367188 38.894531 C 232.699219 38.660156 233.523438 38.183594 233.847656 37.460938 C 233.960938 37.199219 233.835938 37.144531 233.464844 37.300781 Z M 227.644531 45.710938 C 229.949219 45.949219 231.308594 45.082031 231.726562 43.109375 C 231.902344 42.269531 232.136719 41.558594 232.429688 40.980469 C 232.726562 40.363281 232.414062 40.160156 231.484375 40.378906 C 229.136719 40.921875 227.296875 41.886719 225.960938 43.285156 C 224.652344 44.652344 225.214844 45.460938 227.644531 45.710938 Z M 227.644531 45.710938 "/>
<path style=" stroke:none;fill-rule:nonzero;fill:rgb(70.588235%,61.176471%,6.666667%);fill-opacity:0.972549;" d="M 87.9375 29.460938 L 88.261719 38.515625 C 88.269531 38.761719 88.375 38.785156 88.582031 38.582031 L 88.996094 38.179688 L 89.042969 43.292969 C 89.050781 43.59375 88.851562 43.847656 88.570312 43.882812 C 88.371094 43.902344 88.191406 43.832031 88.03125 43.667969 C 87.9375 43.570312 87.898438 43.441406 87.914062 43.292969 C 88.058594 41.648438 87.933594 40.011719 87.535156 38.378906 Z M 87.9375 29.460938 "/>
<path style=" stroke:none;fill-rule:nonzero;fill:rgb(100%,78.431373%,0%);fill-opacity:1;" d="M 17.375 36.203125 C 16.375 35.601562 16.632812 35.359375 18.148438 35.472656 C 18.507812 35.5 18.878906 35.480469 19.253906 35.414062 C 20.761719 35.152344 22.09375 35.265625 23.253906 35.761719 C 32.226562 39.628906 41.347656 40 50.625 36.878906 C 50.6875 36.855469 51.328125 36.582031 52.539062 36.058594 C 54.269531 35.300781 56.421875 35.175781 59 35.6875 C 59.128906 35.710938 59.234375 35.78125 59.269531 35.871094 C 59.308594 35.957031 59.277344 36.050781 59.183594 36.117188 C 57.351562 37.464844 55.160156 38.550781 52.597656 39.386719 C 39.617188 43.601562 27.875 42.539062 17.375 36.203125 Z M 17.375 36.203125 "/>
</g>
</svg>
